<?xml version="1.0" standalone="no"?>
<!DOCTYPE svg PUBLIC "-//W3C//DTD SVG 1.1//EN" "http://www.w3.org/Graphics/SVG/1.1/DTD/svg11.dtd" >
<!--
2018-7-18: Created with FontForge (http://fontforge.org)
-->
<svg xmlns="http://www.w3.org/2000/svg" xmlns:xlink="http://www.w3.org/1999/xlink" version="1.1">
<metadata>
Created by FontForge 20170731 at Wed Jul 18 13:26:26 2018
 By william,,,

</metadata>
<defs>
<font id="epfl-icons" horiz-adv-x="512" >
  <font-face 
    font-family="epfl-icons"
    font-weight="400"
    font-stretch="normal"
    units-per-em="512"
    panose-1="2 0 5 9 0 0 0 0 0 0"
    ascent="448"
    descent="-64"
    bbox="0 -64 512 448"
    underline-thickness="25.6"
    underline-position="-51.2"
    unicode-range="U+F001-F094"
  />
    <missing-glyph />
    <glyph glyph-name="access" unicode="&#xf002;" 
d="M372.644 108.687c14.0938 -14.0742 1.20117 -33.9629 -14.0283 -35.0527l0.0830078 -0.0830078l-39.585 -5.78516c-6.33594 -0.917969 -10.6182 3.43848 -9.58203 9.79199l4.92383 30.4609c-1.04492 1.05566 -11.2773 10.1602 -12.2402 11.123l-41.6113 -6.09766
c-6.7666 -0.982422 -11.3604 3.68652 -10.2412 10.4805l6.60156 40.8496c-0.595703 0.603516 -9.03223 9.59082 -9.76562 10.333c-11.4521 -6.96875 -26.3525 -11.8379 -42.1797 -11.8379c-45.9375 0 -83.1748 37.2383 -83.1748 83.1758
c0 45.9297 37.2373 83.166 83.1748 83.166c45.9385 0 83.1768 -37.2363 83.1768 -83.166c0 -15.1943 -4.13672 -29.3965 -11.252 -41.6562c31.8994 -31.9004 63.792 -63.8018 95.7002 -95.7021zM190.347 236.508c12.5635 0 22.7402 10.1777 22.7402 22.7402
c0 12.5527 -10.1777 22.7402 -22.7402 22.7402c-12.5615 0 -22.7393 -10.1875 -22.7393 -22.7402c0 -12.5625 10.1777 -22.7402 22.7393 -22.7402z" />
    <glyph glyph-name="access_button" unicode="&#xf001;" 
d="M190.347 281.988c12.5635 0 22.7402 -10.1875 22.7402 -22.7402c0 -12.5625 -10.1777 -22.7402 -22.7402 -22.7402c-12.5615 0 -22.7393 10.1777 -22.7393 22.7402c0 12.5527 10.1777 22.7402 22.7393 22.7402zM256 448c141.382 0 256 -114.617 256 -256
c0 -141.382 -114.618 -256 -256 -256c-141.383 0 -256 114.618 -256 256c0 141.383 114.617 256 256 256zM358.614 73.6328c15.2305 1.08984 28.123 20.9785 14.0283 35.0527c-31.9082 31.9004 -63.8008 63.8018 -95.7002 95.7021
c7.11523 12.2598 11.252 26.4619 11.252 41.6562c0 45.9297 -37.2383 83.166 -83.1768 83.166c-45.9375 0 -83.1748 -37.2363 -83.1748 -83.166c0 -45.9385 37.2373 -83.1768 83.1748 -83.1768c15.8271 0 30.7275 4.86914 42.1797 11.8379
c0.733398 -0.742188 9.16992 -9.72852 9.76562 -10.332l-6.60156 -40.8496c-1.11914 -6.79492 3.47461 -11.4629 10.2412 -10.4805l41.6113 6.09766c0.962891 -0.962891 11.1953 -10.0674 12.2402 -11.123l-4.92383 -30.4609
c-1.03613 -6.35352 3.24609 -10.7109 9.58203 -9.79297l39.585 5.78516z" />
    <glyph glyph-name="admin" unicode="&#xf004;" 
d="M345.369 179.529c6.49219 0 11.7383 -5.25391 11.7383 -11.7363v-64.5527c0 -6.49219 -5.24609 -11.7363 -11.7383 -11.7363h-178.006c-6.48242 0 -11.7363 5.24414 -11.7363 11.7363v64.5527c0 6.48242 5.25391 11.7363 11.7363 11.7363h178.006zM291.078 112.777
v44.7461h-68.2217v-44.7461h68.2217zM166.63 204.471c-6.48145 0 -11.7373 5.25391 -11.7373 11.7363v64.5527c0 6.48242 5.25586 11.7363 11.7373 11.7363h178.006c6.49219 0 11.7344 -5.25391 11.7344 -11.7363v-64.5518c0 -6.4834 -5.24219 -11.7373 -11.7344 -11.7373
h-178.006zM222.124 269.756v-44.7461h68.2197v44.7461h-68.2197z" />
    <glyph glyph-name="admin_button" unicode="&#xf003;" 
d="M222.123 225.01v44.7461h68.2207v-44.7461h-68.2207zM222.856 112.777v44.7461h68.2217v-44.7461h-68.2217zM256 448c141.382 0 256 -114.617 256 -256c0 -141.382 -114.618 -256 -256 -256c-141.383 0 -256 114.618 -256 256c0 141.383 114.617 256 256 256z
M154.893 280.76v-64.5527c0 -6.48242 5.25586 -11.7363 11.7373 -11.7363h178.007c6.49219 0 11.7344 5.25391 11.7344 11.7363v64.5527c0 6.48242 -5.24219 11.7363 -11.7344 11.7363h-178.007c-6.48145 0 -11.7373 -5.25391 -11.7373 -11.7363zM357.107 103.24v64.5527
c0 6.48242 -5.24609 11.7363 -11.7383 11.7363h-178.006c-6.48242 0 -11.7363 -5.25391 -11.7363 -11.7363v-64.5527c0 -6.49219 5.25391 -11.7363 11.7363 -11.7363h178.006c6.49219 0 11.7383 5.24414 11.7383 11.7363z" />
    <glyph glyph-name="area" unicode="&#xf006;" 
d="M390.424 259.487c6.48242 0 11.7363 -5.25391 11.7363 -11.7363v-111.5c0 -6.48242 -5.25391 -11.7363 -11.7363 -11.7363h-268.847c-6.48242 0 -11.7363 5.25391 -11.7363 11.7363v111.5c0 6.48242 5.25391 11.7363 11.7363 11.7363h268.847zM154.22 156.295v33.7432
c0 6.4834 -4.92383 11.7373 -11.0029 11.7373c-6.06934 0 -11.0029 -5.25391 -11.0029 -11.7373v-33.7432c0 -6.48145 4.93359 -11.7363 11.0029 -11.7363c6.0791 0 11.0029 5.25488 11.0029 11.7363zM199.223 156.543v33.7422c0 6.48242 -4.93262 11.7373 -11.0029 11.7373
c-6.08887 0 -11.0127 -5.25488 -11.0127 -11.7373v-33.7422c0 -6.48242 4.92383 -11.7363 11.0127 -11.7363c6.07031 0 11.0029 5.25391 11.0029 11.7363zM244.447 156.295v56.4834c0 6.48242 -4.92285 11.7363 -11.0029 11.7363
c-6.06934 0 -11.0029 -5.25391 -11.0029 -11.7363v-56.4834c0 -6.48145 4.93262 -11.7363 11.0029 -11.7363c6.0791 0 11.0029 5.25488 11.0029 11.7363zM289.449 156.295v33.7432c0 6.4834 -4.93262 11.7373 -11.002 11.7373
c-6.08008 0 -11.0039 -5.25391 -11.0039 -11.7373v-33.7432c0 -6.48145 4.92383 -11.7363 11.0039 -11.7363c6.06934 0 11.002 5.25488 11.002 11.7363zM334.436 156.295v33.7432c0 6.4834 -4.93359 11.7373 -11.0039 11.7373
c-6.07812 0 -11.0039 -5.25391 -11.0039 -11.7373v-33.7432c0 -6.48145 4.92578 -11.7363 11.0039 -11.7363c6.07031 0 11.0039 5.25488 11.0039 11.7363zM379.678 156.295v33.7432c0 6.4834 -4.93359 11.7373 -11.0039 11.7373
c-6.08008 0 -11.0039 -5.25391 -11.0039 -11.7373v-33.7432c0 -6.48145 4.92383 -11.7363 11.0039 -11.7363c6.07031 0 11.0039 5.25488 11.0039 11.7363z" />
    <glyph glyph-name="area_button" unicode="&#xf005;" 
d="M233.443 224.515c6.0791 0 11.0029 -5.25391 11.0029 -11.7354v-56.4834c0 -6.48145 -4.92383 -11.7363 -11.0029 -11.7363c-6.07031 0 -11.0039 5.25488 -11.0039 11.7363v56.4834c0 6.48145 4.93359 11.7354 11.0039 11.7354zM188.22 202.022
c6.07031 0 11.0029 -5.25391 11.0029 -11.7373v-33.7422c0 -6.48242 -4.93262 -11.7363 -11.0029 -11.7363c-6.08887 0 -11.0127 5.25391 -11.0127 11.7363v33.7422c0 6.48242 4.92383 11.7373 11.0127 11.7373zM143.217 201.774
c6.0791 0 11.0029 -5.25293 11.0029 -11.7363v-33.7432c0 -6.48145 -4.92383 -11.7363 -11.0029 -11.7363c-6.06934 0 -11.0039 5.25488 -11.0039 11.7363v33.7432c0 6.48145 4.93457 11.7363 11.0039 11.7363zM278.447 201.774c6.07031 0 11.002 -5.25293 11.002 -11.7363
v-33.7432c0 -6.48145 -4.93262 -11.7363 -11.002 -11.7363c-6.08008 0 -11.0039 5.25488 -11.0039 11.7363v33.7432c0 6.48145 4.92383 11.7363 11.0039 11.7363zM368.674 201.774c6.07031 0 11.0039 -5.25293 11.0039 -11.7363v-33.7432
c0 -6.48145 -4.93359 -11.7363 -11.0039 -11.7363c-6.08008 0 -11.0039 5.25488 -11.0039 11.7363v33.7432c0 6.48145 4.92383 11.7363 11.0039 11.7363zM323.432 201.774c6.07031 0 11.0039 -5.25293 11.0039 -11.7363v-33.7432
c0 -6.48145 -4.93359 -11.7363 -11.0039 -11.7363c-6.07812 0 -11.0039 5.25488 -11.0039 11.7363v33.7432c0 6.48145 4.92578 11.7363 11.0039 11.7363zM256 448c141.382 0 256 -114.617 256 -256c0 -141.382 -114.618 -256 -256 -256c-141.383 0 -256 114.618 -256 256
c0 141.383 114.617 256 256 256zM402.16 136.25v111.5c0 6.48242 -5.25391 11.7363 -11.7363 11.7363h-268.848c-6.48242 0 -11.7363 -5.25391 -11.7363 -11.7363v-111.5c0 -6.48242 5.25391 -11.7363 11.7363 -11.7363h268.848c6.48242 0 11.7363 5.25391 11.7363 11.7363z
" />
    <glyph glyph-name="arrow-backward" unicode="&#xf008;" 
d="M375.911 142.026c10.8896 -11.0293 10.7666 -28.792 -0.262695 -39.6631c-5.47168 -5.39258 -12.5908 -8.09375 -19.7002 -8.09375c-7.25098 0 -14.4932 2.78906 -19.9814 8.35547l-75.8818 76.1543c-8.74512 8.7793 -8.70996 22.9922 0.0751953 31.7324l71.2734 70.999
c10.9502 10.959 28.7227 10.959 39.6738 0c10.959 -10.96 10.959 -28.7314 0 -39.6729l-47.1348 -47.1514zM198.419 194.688l51.9453 -52.6602c10.8936 -11.0293 10.7627 -28.792 -0.271484 -39.6641c-5.45801 -5.39258 -12.5811 -8.09277 -19.6953 -8.09277
c-7.24121 0 -14.4883 2.78809 -19.9805 8.35449l-75.8818 76.1543c-8.74512 8.7793 -8.70996 22.9922 0.0751953 31.7324l71.2695 70.999c10.9502 10.959 28.7266 10.959 39.6768 0c10.959 -10.96 10.959 -28.7314 0 -39.6729z" />
    <glyph glyph-name="arrow-backward_button" unicode="&#xf007;" 
d="M256 448c141.382 0 256 -114.617 256 -256c0 -141.382 -114.618 -256 -256 -256c-141.383 0 -256 114.618 -256 256c0 141.383 114.617 256 256 256zM250.095 102.362c11.0342 10.8721 11.165 28.6348 0.273438 39.6631l-51.9473 52.6602l47.1377 47.1514
c10.959 10.9424 10.959 28.7139 0 39.6729c-10.9502 10.959 -28.7266 10.959 -39.6768 0l-71.2695 -70.999c-8.78516 -8.74121 -8.82129 -22.9531 -0.0751953 -31.7324l75.8818 -76.1543c5.49219 -5.56641 12.7383 -8.35547 19.9805 -8.35547
c7.11426 0 14.2373 2.70117 19.6953 8.09375zM375.648 102.362c11.0293 10.8721 11.1523 28.6348 0.262695 39.6631l-51.9385 52.6602l47.1348 47.1514c10.959 10.9424 10.959 28.7139 0 39.6729c-10.9512 10.959 -28.7236 10.959 -39.6738 0l-71.2734 -70.999
c-8.78418 -8.74121 -8.82031 -22.9531 -0.0751953 -31.7324l75.8818 -76.1543c5.48828 -5.56641 12.7305 -8.35547 19.9814 -8.35547c7.10938 0 14.2285 2.70117 19.7002 8.09375z" />
    <glyph glyph-name="arrow-bottom-left" unicode="&#xf00b;" 
d="M149.497 211.035l50.625 -50.6348l66.4629 66.4619c12.1787 12.1875 31.9502 12.1797 44.1367 -0.00878906c12.1875 -12.1855 12.1934 -31.9561 0 -44.1338l-66.4463 -66.4531l50.8994 -50.916c11.8018 -11.7842 7.83594 -21.3525 -8.84277 -21.3525h-148.125
c-5.5625 0 -10.0703 4.5 -10.0703 10.0693v148.117c-0.000976562 16.6865 9.57422 20.6436 21.3604 8.85059z" />
    <glyph glyph-name="arrow-bottom-left_button" unicode="&#xf00a;" 
d="M256 448c141.382 0 256 -114.617 256 -256c0 -141.382 -114.618 -256 -256 -256c-141.383 0 -256 114.618 -256 256c0 141.383 114.617 256 256 256zM342.722 234.721c12.1934 12.1777 12.1855 31.9492 0 44.1357c-12.1865 12.1875 -31.958 12.1953 -44.1367 0.0078125
l-66.4629 -66.4629l-50.625 50.6348c-11.7852 11.793 -21.3604 7.83594 -21.3604 -8.85156v-148.114c0 -5.57031 4.50781 -10.0703 10.0703 -10.0703h148.125c16.6787 0 20.6445 9.56738 8.84277 21.3516l-50.8994 50.917z" />
    <glyph glyph-name="arrow-bottom-right" unicode="&#xf00d;" 
d="M362.504 211.035c11.7852 11.793 21.3604 7.83594 21.3604 -8.85059v-148.114c0 -5.57031 -4.50879 -10.0703 -10.0713 -10.0703h-148.125c-16.6787 0 -20.6445 9.56641 -8.84375 21.3516l50.8994 50.918l-66.4453 66.4512c-12.1943 12.1797 -12.1875 31.9502 0 44.1367
c12.1855 12.1865 31.957 12.1943 44.1357 0.0078125l66.4629 -66.4629l50.627 50.6328z" />
    <glyph glyph-name="arrow-bottom-right_button" unicode="&#xf00c;" 
d="M256 448c141.382 0 256 -114.617 256 -256c0 -141.382 -114.618 -256 -256 -256c-141.383 0 -256 114.618 -256 256c0 141.383 114.617 256 256 256zM351.863 106.07v148.115c0 16.6865 -9.5752 20.6436 -21.3604 8.85059l-50.626 -50.6328l-66.4619 66.4619
c-12.1787 12.1865 -31.9502 12.1787 -44.1357 -0.0078125c-12.1875 -12.1865 -12.1943 -31.957 0 -44.1367l66.4453 -66.4521l-50.9004 -50.917c-11.8008 -11.7852 -7.83496 -21.3516 8.84375 -21.3516h148.124c5.56152 0 10.0713 4.5 10.0713 10.0703z" />
    <glyph glyph-name="arrow-bottom" unicode="&#xf00e;" 
d="M372.793 163.162c-0.0869141 -4.30859 -2.75293 -9.62305 -8.06641 -15.209l-91.8457 -96.499c-9.4541 -9.93066 -24.6875 -9.94824 -34.1318 0l-91.5352 96.8096c-14.1582 14.9385 -9.07715 27.0215 11.4805 27h64.2295l0.310547 91.8467
c0.0195312 18.1709 14.7871 32.9092 32.8906 32.8906c18.1816 -0.0195312 32.8906 -14.7402 32.8906 -32.8906l-0.310547 -92.1562h64.54c12.8574 -0.0107422 19.6943 -4.61621 19.5479 -11.792z" />
    <glyph glyph-name="arrow-bottom_button" unicode="&#xf009;" 
d="M256 448c141.382 0 256 -114.617 256 -256c0 -141.382 -114.618 -256 -256 -256c-141.383 0 -256 114.618 -256 256c0 141.383 114.617 256 256 256zM364.727 167.953c5.31348 5.58594 7.97949 10.8994 8.06641 15.209
c0.146484 7.17578 -6.69141 11.7822 -19.5479 11.792h-64.54l0.310547 92.1562c0 18.1514 -14.709 32.8711 -32.8896 32.8906c-18.1035 0.0185547 -32.8711 -14.7197 -32.8906 -32.8906l-0.310547 -91.8467h-64.2295c-20.5566 0.0205078 -25.6377 -12.0615 -11.4805 -27
l91.5352 -96.8096c9.44434 -9.94824 24.6768 -9.92969 34.1309 0z" />
    <glyph glyph-name="arrow-forward" unicode="&#xf010;" 
d="M251.84 210.513c8.78516 -8.74121 8.82031 -22.9531 0.0751953 -31.7334l-75.8818 -76.1543c-5.48828 -5.56641 -12.7305 -8.35547 -19.9814 -8.35547c-7.10938 0 -14.2285 2.70117 -19.7002 8.09375c-11.0293 10.8721 -11.1523 28.6348 -0.262695 39.6641
l51.9385 52.6611l-47.1348 47.1504c-10.959 10.9424 -10.959 28.7129 0 39.6729c10.9512 10.959 28.7236 10.959 39.6738 0zM377.389 210.513c8.78516 -8.74121 8.82031 -22.9531 0.0742188 -31.7334l-75.8818 -76.1543
c-5.49219 -5.56641 -12.7393 -8.35547 -19.9805 -8.35547c-7.11426 0 -14.2373 2.70117 -19.6953 8.09375c-11.0342 10.8721 -11.165 28.6348 -0.271484 39.6641l51.9463 52.6611l-47.1377 47.1504c-10.959 10.9424 -10.959 28.7129 0 39.6729
c10.9492 10.959 28.7266 10.959 39.6768 0z" />
    <glyph glyph-name="arrow-forward_button" unicode="&#xf00f;" 
d="M256 448c141.382 0 256 -114.617 256 -256c0 -141.382 -114.618 -256 -256 -256c-141.383 0 -256 114.618 -256 256c0 141.383 114.617 256 256 256zM176.034 102.625l75.8818 76.1553c8.74512 8.7793 8.70996 22.9922 -0.0751953 31.7324l-71.2734 70.999
c-10.9502 10.959 -28.7227 10.959 -39.6738 0c-10.959 -10.96 -10.959 -28.7314 0 -39.6729l47.1348 -47.1504l-51.9385 -52.6611c-10.8887 -11.0293 -10.7656 -28.792 0.262695 -39.6641c5.47168 -5.39258 12.5908 -8.09375 19.7002 -8.09375
c7.25098 0 14.4932 2.78906 19.9814 8.35547zM377.464 178.779c8.74512 8.78027 8.70996 22.9922 -0.0742188 31.7334l-71.2695 70.999c-10.9502 10.959 -28.7275 10.959 -39.6768 0c-10.958 -10.96 -10.958 -28.7314 0 -39.6729l47.1377 -47.1504l-51.9463 -52.6611
c-10.8936 -11.0293 -10.7627 -28.792 0.271484 -39.6641c5.45801 -5.39258 12.5811 -8.09375 19.6953 -8.09375c7.24121 0 14.4883 2.78906 19.9805 8.35547z" />
    <glyph glyph-name="arrow-head-bottom" unicode="&#xf012;" 
d="M249.737 99.9531l-83.8027 132.735c-3.45703 5.48242 -1.01758 9.93066 5.46582 9.93066h169.199c6.47461 0 8.92285 -4.44727 5.46582 -9.93066l-83.8027 -132.735c-3.46582 -5.46484 -9.06836 -5.46484 -12.5254 0z" />
    <glyph glyph-name="arrow-head-bottom_button" unicode="&#xf011;" 
d="M256 448c141.382 0 256 -114.617 256 -256c0 -141.382 -114.618 -256 -256 -256c-141.383 0 -256 114.618 -256 256c0 141.383 114.617 256 256 256zM346.065 232.688c3.45703 5.4834 1.00879 9.93066 -5.46582 9.93066h-169.198
c-6.4834 0 -8.92285 -4.44824 -5.46582 -9.93066l83.8027 -132.735c3.45703 -5.46484 9.05859 -5.46484 12.5244 0z" />
    <glyph glyph-name="arrow-head-left" unicode="&#xf014;" 
d="M163.967 185.73c-5.4834 3.4668 -5.4834 9.06836 0 12.5352l132.728 83.8018c5.47461 3.45703 9.92188 1.00781 9.92188 -5.47461v-169.193c0 -6.49219 -4.44727 -8.93262 -9.92188 -5.4668z" />
    <glyph glyph-name="arrow-head-left_button" unicode="&#xf013;" 
d="M256 448c141.382 0 256 -114.617 256 -256c0 -141.382 -114.618 -256 -256 -256c-141.383 0 -256 114.618 -256 256c0 141.383 114.617 256 256 256zM306.615 107.403v169.192c0 6.4834 -4.44727 8.93164 -9.92188 5.47461l-132.727 -83.8018
c-5.48242 -3.46582 -5.48242 -9.06738 0 -12.5342l132.727 -83.7979c5.47461 -3.46582 9.92188 -1.02539 9.92188 5.4668z" />
    <glyph glyph-name="arrow-head-right" unicode="&#xf016;" 
d="M348.033 185.73l-132.728 -83.7979c-5.47461 -3.46582 -9.92188 -1.02539 -9.92188 5.4668v169.193c0 6.48242 4.44727 8.93164 9.92188 5.47461l132.728 -83.8018c5.4834 -3.4668 5.4834 -9.06836 0 -12.5352z" />
    <glyph glyph-name="arrow-head-right_button" unicode="&#xf015;" 
d="M256 448c141.382 0 256 -114.617 256 -256c0 -141.382 -114.618 -256 -256 -256c-141.383 0 -256 114.618 -256 256c0 141.383 114.617 256 256 256zM348.033 185.734c5.4834 3.4668 5.4834 9.06836 0 12.5352l-132.728 83.8018
c-5.47461 3.45703 -9.92188 1.00781 -9.92188 -5.47461v-169.193c0 -6.49219 4.44727 -8.93262 9.92188 -5.4668z" />
    <glyph glyph-name="arrow-head-top" unicode="&#xf018;" 
d="M262.263 284.038l83.8027 -132.735c3.45703 -5.48145 1.01855 -9.9209 -5.46582 -9.9209h-169.199c-6.47461 0 -8.92285 4.43848 -5.46582 9.9209l83.8027 132.735c3.46582 5.47461 9.06836 5.47461 12.5254 0z" />
    <glyph glyph-name="arrow-head-top_button" unicode="&#xf017;" 
d="M256 448c141.382 0 256 -114.617 256 -256c0 -141.382 -114.618 -256 -256 -256c-141.383 0 -256 114.618 -256 256c0 141.383 114.617 256 256 256zM340.599 141.382c6.4834 0 8.92285 4.43848 5.46484 9.9209l-83.8027 132.735
c-3.45703 5.47461 -9.05859 5.47461 -12.5244 0l-83.8027 -132.735c-3.45703 -5.48242 -1.00879 -9.9209 5.46582 -9.9209h169.199z" />
    <glyph glyph-name="arrow-left" unicode="&#xf01a;" 
d="M231.953 300.728c5.58594 5.31348 10.8984 7.97949 15.209 8.06543c7.17578 0.146484 11.7822 -6.69141 11.792 -19.5479v-64.54l92.1562 0.310547c18.1504 0 32.8711 -14.709 32.8906 -32.8896c0.0185547 -18.1025 -14.7207 -32.8701 -32.8906 -32.8896
l-91.8467 -0.311523v-64.2295c0.0205078 -20.5566 -12.0615 -25.6367 -27 -11.4805l-96.8096 91.5352c-9.94824 9.44531 -9.92969 24.6777 0 34.1318z" />
    <glyph glyph-name="arrow-left_button" unicode="&#xf019;" 
d="M256 448c141.382 0 256 -114.617 256 -256c0 -141.382 -114.618 -256 -256 -256c-141.383 0 -256 114.618 -256 256c0 141.383 114.617 256 256 256zM351.109 159.236c18.1699 0.0195312 32.9102 14.7871 32.8896 32.8906
c-0.0205078 18.1807 -14.7412 32.8896 -32.8906 32.8896l-92.1562 -0.310547v64.54c-0.00976562 12.8574 -4.61523 19.6943 -11.791 19.5479c-4.31055 -0.0869141 -9.62305 -2.75293 -15.209 -8.06641l-96.499 -91.8457c-9.92969 -9.4541 -9.94824 -24.6865 0 -34.1318
l96.8096 -91.5352c14.9385 -14.1572 27.0205 -9.07715 27 11.4805v64.2295z" />
    <glyph glyph-name="arrow-line-bottom" unicode="&#xf01c;" 
d="M255.6 119.3l162.301 177.4c5.7998 5.7998 15.2998 5.7998 21.0996 0s5.7998 -15.2998 0 -21.1006c0 0 -171.6 -187.399 -172.3 -188.1c-3.10059 -3.09961 -7.10059 -4.7998 -11.1006 -4.59961c-4 -0.100586 -8.09961 1.5 -11.1992 4.59961
c-0.700195 0.700195 -172.301 188.1 -172.301 188.1c-5.7998 5.80078 -5.7998 15.3008 0 21.1006c5.80078 5.7998 15.3008 5.7998 21.1006 0z" />
    <glyph glyph-name="arrow-line-bottom_button" unicode="&#xf01b;" 
d="M0 192c0 141.4 114.6 256 256 256s256 -114.6 256 -256s-114.6 -256 -256 -256s-256 114.6 -256 256zM397.2 282.3l-142.2 -155.399l-142.3 155.399c-5.10059 5.10059 -13.4004 5.10059 -18.5 0c-5.10059 -5.09961 -5.10059 -13.3994 0 -18.5
c0 0 150.399 -164.2 151 -164.8c2.7002 -2.7002 6.2998 -4.09961 9.7998 -4c3.5 -0.200195 7 1.2998 9.7002 4c0.700195 0.599609 151 164.8 151 164.8c5.09961 5.10059 5.09961 13.4004 0 18.5c-5.10059 5.10059 -13.4004 5.10059 -18.5 0z" />
    <glyph glyph-name="arrow-line-left" unicode="&#xf01e;" 
d="M182.9 192l177.399 -162.3c5.7998 -5.7998 5.7998 -15.2998 0 -21.1006c-5.7998 -5.7998 -15.2998 -5.7998 -21.0996 0c0 0 -187.4 171.601 -188.101 172.301c-3.09961 3.09961 -4.7998 7.09961 -4.59961 11.0996c-0.0996094 4 1.5 8.09961 4.59961 11.2002
c0.700195 0.700195 188.101 172.3 188.101 172.3c5.7998 5.7998 15.2998 5.7998 21.0996 0s5.7998 -15.2998 0 -21.0996z" />
    <glyph glyph-name="arrow-line-left_button" unicode="&#xf01d;" 
d="M256 448c141.4 0 256 -114.6 256 -256s-114.6 -256 -256 -256s-256 114.6 -256 256s114.6 256 256 256zM346.3 50.7998l-155.399 142.2l155.399 142.3c5.10059 5.10059 5.10059 13.4004 0 18.5c-5.09961 5.10059 -13.3994 5.10059 -18.5 0
c0 0 -164.2 -150.399 -164.8 -151c-2.7002 -2.7002 -4.09961 -6.2998 -4 -9.7998c-0.200195 -3.5 1.2998 -7 4 -9.7002c0.599609 -0.700195 164.8 -151 164.8 -151c5.10059 -5.09961 13.4004 -5.09961 18.5 0c5.10059 5.10059 5.10059 13.4004 0 18.5z" />
    <glyph glyph-name="arrow-line-right" unicode="&#xf020;" 
d="M328.3 192l-177.399 162.4c-5.80078 5.7998 -5.80078 15.2998 0 21.0996c5.7998 5.7998 15.2998 5.7998 21.0996 0c0 0 187.4 -171.6 188.1 -172.3c3.10059 -3.10059 4.7002 -7.2002 4.60059 -11.2002c0.200195 -4 -1.5 -8 -4.60059 -11.0996
c-0.699219 -0.800781 -188.1 -172.4 -188.1 -172.4c-5.7998 -5.7998 -15.2998 -5.7998 -21.0996 0c-5.80078 5.7998 -5.80078 15.2998 0 21.0996z" />
    <glyph glyph-name="arrow-line-right_button" unicode="&#xf01f;" 
d="M0 192c0 141.4 114.6 256 256 256s256 -114.6 256 -256s-114.6 -256 -256 -256s-256 114.6 -256 256zM321.1 193l-155.399 -142.2c-5.10059 -5.09961 -5.10059 -13.3994 0 -18.5c5.09961 -5.09961 13.3994 -5.09961 18.5 0c0 0 164.2 150.4 164.8 151
c2.7002 2.7002 4.2002 6.2002 4 9.7002c0.0996094 3.5 -1.2998 7.09961 -4 9.7998c-0.599609 0.700195 -164.8 151 -164.8 151c-5.10059 5.10059 -13.4004 5.10059 -18.5 0c-5.10059 -5.09961 -5.10059 -13.3994 0 -18.5z" />
    <glyph glyph-name="arrow-line-top" unicode="&#xf022;" 
d="M255.6 264.7l-162.399 -177.4c-5.7998 -5.7998 -15.2998 -5.7998 -21.1006 0c-5.7998 5.7998 -5.7998 15.2998 0 21.1006c0 0 171.601 187.399 172.301 188.1c3.09961 3.09961 7.19922 4.7002 11.1992 4.59961c4 0.200195 8 -1.5 11.1006 -4.59961
c0.700195 -0.700195 172.3 -188.1 172.3 -188.1c5.7998 -5.80078 5.7998 -15.3008 0 -21.1006s-15.2998 -5.7998 -21.0996 0z" />
    <glyph glyph-name="arrow-line-top_button" unicode="&#xf021;" 
d="M256 -64c-141.4 0 -256 114.6 -256 256s114.6 256 256 256s256 -114.6 256 -256s-114.6 -256 -256 -256zM255 257.1l142.2 -155.399c5.09961 -5.10059 13.3994 -5.10059 18.5 0c5.09961 5.09961 5.09961 13.3994 0 18.5c0 0 -150.4 164.2 -151 164.8
c-2.7002 2.7002 -6.2002 4.2002 -9.7002 4c-3.5 0.0996094 -7.09961 -1.2998 -9.7998 -4c-0.700195 -0.599609 -151 -164.8 -151 -164.8c-5.10059 -5.10059 -5.10059 -13.4004 0 -18.5c5.09961 -5.10059 13.3994 -5.10059 18.5 0z" />
    <glyph glyph-name="arrow-right" unicode="&#xf024;" 
d="M264.838 308.794c4.30957 -0.0869141 9.62305 -2.75293 15.21 -8.06641l96.499 -91.8457c9.92969 -9.4541 9.94824 -24.6865 0 -34.1318l-96.8096 -91.5352c-14.9385 -14.1572 -27.0205 -9.07715 -27 11.4805v64.2295l-91.8467 0.311523
c-18.1699 0.0195312 -32.9102 14.7871 -32.8906 32.8906c0.0195312 18.1807 14.7412 32.8896 32.8906 32.8896l92.1562 -0.310547v64.54c0.00976562 12.8574 4.61523 19.6943 11.791 19.5479z" />
    <glyph glyph-name="arrow-right_button" unicode="&#xf023;" 
d="M256 448c141.382 0 256 -114.617 256 -256c0 -141.382 -114.618 -256 -256 -256c-141.383 0 -256 114.618 -256 256c0 141.383 114.617 256 256 256zM376.546 174.75c9.94824 9.44531 9.92969 24.6777 -0.000976562 34.1318l-96.499 91.8457
c-5.58594 5.31348 -10.8984 7.97949 -15.209 8.06641c-7.17578 0.146484 -11.7812 -6.69141 -11.791 -19.5479v-64.54l-92.1562 0.310547c-18.1504 0 -32.8711 -14.709 -32.8906 -32.8896c-0.0185547 -18.1035 14.7207 -32.8711 32.8906 -32.8906l91.8467 -0.311523
v-64.2295c-0.0195312 -20.5566 12.0615 -25.6367 27 -11.4805z" />
    <glyph glyph-name="arrow-stop-bottom" unicode="&#xf026;" 
d="M237.142 180.353l-100.409 105.784c-15.5059 16.3545 -9.81348 29.5654 12.7227 29.5439l213.129 -0.211914c22.5254 -0.0205078 28.1846 -13.2734 12.6494 -29.5645l-100.623 -105.604c-10.3555 -10.8584 -27.1357 -10.8477 -37.4688 0.0527344zM339.274 140.697
c22.5244 0 40.7793 -16.1943 40.7783 -36.1914c0 -19.9932 -18.2549 -36.1875 -40.7783 -36.1875h-166.521c-22.5137 0 -40.7803 16.1953 -40.7803 36.1875c0 19.9971 18.2666 36.1914 40.7803 36.1914h166.521z" />
    <glyph glyph-name="arrow-stop-bottom_button" unicode="&#xf025;" 
d="M256 448c141.382 0 256 -114.617 256 -256c0 -141.382 -114.618 -256 -256 -256c-141.383 0 -256 114.618 -256 256c0 141.383 114.617 256 256 256zM339.274 68.3184c22.5244 0 40.7793 16.1953 40.7783 36.1875c0 19.9971 -18.2549 36.1914 -40.7783 36.1914h-166.521
c-22.5137 0 -40.7803 -16.1943 -40.7803 -36.1914c0 -19.9932 18.2666 -36.1875 40.7803 -36.1875h166.521zM375.233 285.903c15.5361 16.291 9.87598 29.5439 -12.6494 29.5664l-213.129 0.211914c-22.5361 0.0205078 -28.2285 -13.1895 -12.7227 -29.5439
l100.409 -105.785c10.333 -10.9014 27.1133 -10.9111 37.4688 -0.0527344z" />
    <glyph glyph-name="arrow-stop-left" unicode="&#xf028;" 
d="M350.137 311.268c16.3545 15.5049 29.5654 9.81348 29.5449 -12.7227l-0.212891 -213.129c-0.0205078 -22.5254 -13.2734 -28.1846 -29.5645 -12.6494l-105.604 100.623c-10.8594 10.3555 -10.8486 27.1348 0.0517578 37.4678zM168.505 316.025
c19.998 0 36.1934 -18.2666 36.1934 -40.7803v-166.521c0 -22.5234 -16.1953 -40.7783 -36.1934 -40.7783c-19.9922 0 -36.1865 18.2549 -36.1865 40.7783v166.521c0 22.5137 16.1943 40.7803 36.1865 40.7803z" />
    <glyph glyph-name="arrow-stop-left_button" unicode="&#xf027;" 
d="M256 448c141.382 0 256 -114.617 256 -256c0 -141.382 -114.618 -256 -256 -256c-141.383 0 -256 114.618 -256 256c0 141.383 114.617 256 256 256zM204.699 108.726v166.521c0 22.5137 -16.1953 40.7803 -36.1934 40.7803
c-19.9922 0 -36.1865 -18.2666 -36.1865 -40.7803v-166.521c0 -22.5234 16.1943 -40.7783 36.1865 -40.7783c19.998 0 36.1934 18.2549 36.1934 40.7783zM379.469 85.416l0.211914 213.129c0.0205078 22.5361 -13.1904 28.2285 -29.5449 12.7227l-105.784 -100.41
c-10.9004 -10.333 -10.9102 -27.1123 -0.0517578 -37.4678l105.604 -100.623c16.291 -15.5361 29.5439 -9.87598 29.5645 12.6494z" />
    <glyph glyph-name="arrow-stop-right" unicode="&#xf02a;" 
d="M267.647 210.857c10.9014 -10.332 10.9121 -27.1123 0.0527344 -37.4678l-105.604 -100.623c-16.291 -15.5361 -29.5439 -9.87598 -29.5645 12.6494l-0.212891 213.129c-0.0214844 22.5352 13.1895 28.2275 29.5439 12.7217zM343.494 316.025
c19.9922 0 36.1875 -18.2666 36.1875 -40.7803v-166.521c0 -22.5234 -16.1953 -40.7783 -36.1875 -40.7783c-19.9971 0 -36.1924 18.2549 -36.1924 40.7783v166.521c0 22.5137 16.1953 40.7803 36.1924 40.7803z" />
    <glyph glyph-name="arrow-stop-right_button" unicode="&#xf029;" 
d="M256 448c141.382 0 256 -114.617 256 -256c0 -141.382 -114.618 -256 -256 -256c-141.383 0 -256 114.618 -256 256c0 141.383 114.617 256 256 256zM267.7 173.39c10.8594 10.3555 10.8486 27.1357 -0.0527344 37.4678l-105.784 100.409
c-16.3545 15.5068 -29.5654 9.81348 -29.5439 -12.7217l0.212891 -213.129c0.0205078 -22.5254 13.2734 -28.1846 29.5645 -12.6494zM379.682 108.726v166.521c0 22.5137 -16.1953 40.7803 -36.1875 40.7803c-19.9971 0 -36.1924 -18.2666 -36.1924 -40.7803v-166.521
c0 -22.5234 16.1953 -40.7783 36.1924 -40.7783c19.9932 0 36.1875 18.2549 36.1875 40.7783z" />
    <glyph glyph-name="arrow-stop-top" unicode="&#xf02c;" 
d="M172.755 243.301c-22.5146 0 -40.7803 16.1963 -40.7803 36.1934c0 19.9922 18.2656 36.1865 40.7803 36.1865h166.521c22.5225 0 40.7783 -16.1943 40.7783 -36.1865c0 -19.998 -18.2559 -36.1934 -40.7783 -36.1934h-166.521zM375.232 98.0967
c15.5371 -16.291 9.87695 -29.5439 -12.6484 -29.5654l-213.129 -0.212891c-22.5361 -0.0195312 -28.2285 13.1904 -12.7227 29.5449l100.408 105.784c10.334 10.9014 27.1143 10.9111 37.4697 0.0527344z" />
    <glyph glyph-name="arrow-stop-top_button" unicode="&#xf02b;" 
d="M256 448c141.382 0 256 -114.617 256 -256c0 -141.382 -114.618 -256 -256 -256c-141.383 0 -256 114.618 -256 256c0 141.383 114.617 256 256 256zM172.755 315.681c-22.5137 0 -40.7803 -16.1943 -40.7803 -36.1865c0 -19.998 18.2656 -36.1934 40.7803 -36.1934
h166.52c22.5225 0 40.7783 16.1953 40.7783 36.1934c0 19.9922 -18.2559 36.1865 -40.7783 36.1865h-166.52zM362.584 68.5312c22.5254 0.0214844 28.1855 13.2744 12.6484 29.5645l-100.622 105.604c-10.3555 10.8584 -27.1348 10.8477 -37.4688 -0.0527344
l-100.408 -105.784c-15.5059 -16.3555 -9.81348 -29.5654 12.7227 -29.5449z" />
    <glyph glyph-name="arrow-top-left" unicode="&#xf02f;" 
d="M149.496 172.965c-11.7852 -11.793 -21.3594 -7.83594 -21.3594 8.85254v148.111c0 5.57129 4.50684 10.0713 10.0703 10.0713h148.125c16.6777 0 20.6445 -9.56738 8.84375 -21.3516l-50.9004 -50.917l66.4453 -66.4521c12.1943 -12.1807 12.1885 -31.9492 0 -44.1357
c-12.1865 -12.1875 -31.957 -12.1943 -44.1357 -0.00878906l-66.4629 66.4648l-50.626 -50.6348z" />
    <glyph glyph-name="arrow-top-left_button" unicode="&#xf02e;" 
d="M256 448c141.382 0 256 -114.617 256 -256c0 -141.382 -114.618 -256 -256 -256c-141.383 0 -256 114.618 -256 256c0 141.383 114.617 256 256 256zM342.721 105.145c12.1855 12.1855 12.1934 31.9561 0 44.1348l-66.4453 66.4521l50.9004 50.917
c11.8008 11.7842 7.83398 21.3516 -8.84375 21.3516h-148.125c-5.56348 0 -10.0703 -4.5 -10.0703 -10.0713v-148.111c0 -16.6885 9.57422 -20.6455 21.3594 -8.85254l50.626 50.6348l66.4619 -66.4629c12.1797 -12.1865 31.9492 -12.1797 44.1367 0.0078125z" />
    <glyph glyph-name="arrow-top-right" unicode="&#xf031;" 
d="M362.504 172.965l-50.626 50.6348l-66.4629 -66.4629c-12.1787 -12.1875 -31.9502 -12.1797 -44.1357 0.0078125c-12.1865 12.1875 -12.1943 31.957 0 44.1367l66.4473 66.4521l-50.9004 50.917c-11.8027 11.7822 -7.83691 21.3496 8.84082 21.3496h148.125
c5.56152 0 10.0713 -4.5 10.0713 -10.0713v-148.112c0.000976562 -16.6875 -9.57422 -20.6445 -21.3594 -8.85156z" />
    <glyph glyph-name="arrow-top-right_button" unicode="&#xf030;" 
d="M256 448c141.382 0 256 -114.617 256 -256c0 -141.382 -114.618 -256 -256 -256c-141.383 0 -256 114.618 -256 256c0 141.383 114.617 256 256 256zM351.864 129.816h-0.000976562v148.112c0 5.57129 -4.50977 10.0713 -10.0713 10.0713h-148.125
c-16.6777 0 -20.6436 -9.56738 -8.84277 -21.3506l50.9004 -50.917l-66.4453 -66.4521c-12.1943 -12.1797 -12.1865 -31.9492 0 -44.1367c12.1855 -12.1865 31.957 -12.1943 44.1357 -0.00683594l66.4629 66.4629l50.626 -50.6357
c11.7852 -11.793 21.3604 -7.83594 21.3604 8.85254z" />
    <glyph glyph-name="arrow-top" unicode="&#xf032;" 
d="M364.728 236.047c5.31348 -5.58594 7.97949 -10.8994 8.06641 -15.2109c0.146484 -7.17578 -6.69238 -11.7803 -19.5479 -11.791h-64.54l0.311523 -92.1553c0 -18.1523 -14.709 -32.8711 -32.8906 -32.8916c-18.1035 -0.0175781 -32.8711 14.7197 -32.8906 32.8916
l-0.310547 91.8467h-64.2295c-20.5566 -0.0205078 -25.6377 12.0615 -11.4805 27l91.5352 96.8096c9.44434 9.94824 24.6768 9.92969 34.1309 0z" />
    <glyph glyph-name="arrow-top_button" unicode="&#xf02d;" 
d="M256 448c141.382 0 256 -114.617 256 -256c0 -141.382 -114.618 -256 -256 -256c-141.383 0 -256 114.618 -256 256c0 141.383 114.617 256 256 256zM353.246 189.047c12.8574 0.00976562 19.6943 4.61523 19.5479 11.792
c-0.0869141 4.31055 -2.75293 9.62305 -8.06641 15.209l-91.8457 96.499c-9.4541 9.92969 -24.6865 9.94824 -34.1309 0l-91.5352 -96.8096c-14.1582 -14.9385 -9.07715 -27.0205 11.4805 -27h64.2295l0.310547 -91.8467
c0.0195312 -18.1709 14.7871 -32.9102 32.8906 -32.8906c18.1807 0.0195312 32.8896 14.7402 32.8896 32.8906l-0.310547 92.1562h64.54z" />
    <glyph glyph-name="bulb-off" unicode="&#xf034;" 
d="M256 279.045c39.4834 0 71.5303 -33.7158 71.5293 -75.3066c0 -35.9902 -32.0654 -54.0361 -32.0654 -83.2031c0 -6.47461 -6.42773 -11.6641 -12.9199 -11.6641h-53.0898c-6.48242 0 -12.9189 5.16309 -12.9189 11.6543c0 29.1758 -32.0654 47.6436 -32.0654 83.2119
c0 41.5918 32.0469 75.3076 71.5303 75.3076zM276.971 90.917c9.19629 0 16.624 -7.44629 16.624 -16.6338v-10.5264c0 -9.19629 -7.42773 -16.6328 -16.624 -16.6328h-41.9492c-9.16016 0 -16.6152 7.43652 -16.6152 16.6328v10.5264
c0 9.1875 7.45508 16.6338 16.6152 16.6338h41.9492z" />
    <glyph glyph-name="bulb-off_button" unicode="&#xf033;" 
d="M256 448c141.382 0 256 -114.617 256 -256c0 -141.382 -114.618 -256 -256 -256c-141.383 0 -256 114.618 -256 256c0 141.383 114.617 256 256 256zM293.595 63.7568v10.5264c0 9.1875 -7.42773 16.6338 -16.624 16.6338h-41.9492
c-9.16016 0 -16.6152 -7.44629 -16.6152 -16.6338v-10.5264c0 -9.19629 7.45508 -16.6328 16.6152 -16.6328h41.9492c9.19629 0 16.624 7.43652 16.624 16.6328zM295.465 120.534c0 29.167 32.0654 47.2129 32.0664 83.2021c0 41.5918 -32.0469 75.3076 -71.5303 75.3076
s-71.5303 -33.7158 -71.5303 -75.3076c0 -35.5674 32.0654 -54.0352 32.0654 -83.2119c0 -6.49121 6.43555 -11.6543 12.9189 -11.6543h53.0898c6.49219 0 12.9199 5.18945 12.9199 11.6641z" />
    <glyph glyph-name="bulb-on" unicode="&#xf036;" 
d="M335.343 271.232c-3.75879 0 -7.50977 1.43066 -10.3701 4.29199c-5.72949 5.72949 -5.72949 15.0186 0 20.75l26.4082 26.4072c5.73047 5.73145 15.0098 5.73145 20.7402 0c5.73047 -5.7207 5.73047 -15.0098 0 -20.7402l-26.4072 -26.417
c-2.86133 -2.86133 -6.61133 -4.29199 -10.3711 -4.29199zM344.989 139.047l28.1221 -28.1318c5.73047 -5.73047 5.73047 -15.0186 0 -20.7412c-2.86914 -2.86035 -6.62891 -4.30078 -10.3701 -4.30078c-3.76953 0 -7.50977 1.44141 -10.3799 4.30078l-28.1133 28.123
c-5.73047 5.73145 -5.73047 15.0293 0 20.7588c5.72949 5.73145 15.0186 5.71289 20.7412 -0.00878906zM277.457 90.917c9.19629 0 16.624 -7.44629 16.624 -16.6338v-10.5264c0 -9.19629 -7.42773 -16.6328 -16.624 -16.6328h-41.9502
c-9.16016 0 -16.6152 7.43652 -16.6152 16.6328v10.5264c0 9.1875 7.45508 16.6338 16.6152 16.6338h41.9502zM256.486 279.045c39.4834 0 71.5303 -33.7158 71.5293 -75.3066c0 -35.9902 -32.0645 -54.0361 -32.0645 -83.2031
c0 -6.47461 -6.42773 -11.6641 -12.9199 -11.6641h-53.0908c-6.48242 0 -12.9189 5.16309 -12.9189 11.6543c0 29.1758 -32.0654 47.6436 -32.0654 83.2119c0 41.5918 32.0469 75.3076 71.5303 75.3076zM256.357 301.308c-8.0957 0 -14.6709 6.56641 -14.6719 14.6709
v43.5186c0 8.10547 6.5752 14.6709 14.6719 14.6709c8.10645 0 14.6719 -6.56641 14.6719 -14.6709v-43.5186c0 -8.10547 -6.56641 -14.6709 -14.6719 -14.6709zM405.03 221.351c8.10547 0 14.6709 -6.57324 14.6709 -14.6709
c0 -8.10547 -6.56641 -14.6709 -14.6709 -14.6709h-37.1729c-8.09766 0 -14.6719 6.56543 -14.6719 14.6709c0 8.09766 6.57422 14.6709 14.6719 14.6709h37.1729zM167.754 139.295c5.73145 5.73047 15.0107 5.73047 20.7412 -0.000976562
c5.73047 -5.72168 5.73047 -15.0107 0 -20.7422l-27.3887 -27.3965c-2.86133 -2.86133 -6.62012 -4.29199 -10.3711 -4.29199c-3.75977 0 -7.51074 1.43066 -10.3701 4.29199c-5.73145 5.72949 -5.73145 15.0195 0 20.75zM167.992 275.038l-27.875 27.875
c-5.73047 5.72949 -5.73047 15.0098 0 20.7412c5.73047 5.72949 15.0107 5.72949 20.7412 0l27.875 -27.875c5.73047 -5.73145 5.73047 -15.0117 0 -20.7412c-2.86035 -2.87012 -6.62012 -4.30078 -10.3701 -4.30078c-3.75098 0 -7.51074 1.43066 -10.3711 4.30078z
M162.72 207.166c0 -8.10547 -6.56445 -14.6709 -14.6709 -14.6709h-41.0781c-8.10645 0 -14.6719 6.56543 -14.6719 14.6709c0 8.09668 6.56641 14.6709 14.6719 14.6709h41.0781c8.10742 0 14.6709 -6.57422 14.6709 -14.6709z" />
    <glyph glyph-name="bulb-on_button" unicode="&#xf035;" 
d="M256 448c141.382 0 256 -114.617 256 -256c0 -141.382 -114.618 -256 -256 -256c-141.383 0 -256 114.618 -256 256c0 141.383 114.617 256 256 256zM324.973 296.274c-5.73047 -5.73145 -5.73047 -15.0195 0 -20.75c2.86035 -2.86133 6.61133 -4.29199 10.3701 -4.29199
c3.75977 0 7.50977 1.43066 10.3711 4.29199l26.4072 26.417c5.73047 5.73047 5.73047 15.0186 0 20.7402c-5.73047 5.73145 -15.0098 5.73145 -20.7402 0zM241.687 359.497v-43.5186c0 -8.10547 6.5752 -14.6709 14.6719 -14.6709
c8.10645 0 14.6719 6.56543 14.6719 14.6709v43.5186c0 8.10547 -6.56641 14.6709 -14.6719 14.6709c-8.09668 0 -14.6719 -6.56641 -14.6719 -14.6709zM140.117 323.654c-5.73047 -5.73145 -5.73047 -15.0107 0 -20.7412l27.875 -27.875
c2.86035 -2.87012 6.62012 -4.30078 10.3711 -4.30078c3.75 0 7.50977 1.43066 10.3701 4.30078c5.73047 5.72949 5.73047 15.0098 0 20.7412l-27.875 27.875c-5.73047 5.72949 -15.0107 5.72949 -20.7412 0zM92.2988 207.166c0 -8.10547 6.56543 -14.6709 14.6719 -14.6709
h41.0781c8.10742 0 14.6709 6.56543 14.6709 14.6709c0 8.09668 -6.56445 14.6709 -14.6709 14.6709h-41.0781c-8.10645 0 -14.6719 -6.57422 -14.6719 -14.6709zM188.495 118.553c5.73145 5.73145 5.73145 15.0195 0 20.7432c-5.73047 5.73047 -15.0098 5.73047 -20.7412 0
l-27.3887 -27.3896c-5.73145 -5.73047 -5.73145 -15.0205 0 -20.75c2.85938 -2.86133 6.61035 -4.29199 10.3701 -4.29199c3.75098 0 7.50977 1.43066 10.3711 4.29199zM294.081 63.7568v10.5264c0 9.1875 -7.42773 16.6338 -16.624 16.6338h-41.9502
c-9.16016 0 -16.6152 -7.44629 -16.6152 -16.6338v-10.5264c0 -9.19629 7.45508 -16.6328 16.6152 -16.6328h41.9502c9.19629 0 16.624 7.43652 16.624 16.6328zM283.031 108.87c6.49219 0 12.9199 5.19043 12.9199 11.6631c0 29.167 32.0645 47.2129 32.0645 83.2031
c0 41.5918 -32.0469 75.3076 -71.5293 75.3076c-39.4834 0 -71.5303 -33.7158 -71.5303 -75.3076c0 -35.5674 32.0654 -54.0352 32.0654 -83.2119c0 -6.49121 6.43652 -11.6543 12.9189 -11.6543h53.0908zM373.111 90.1738c5.73145 5.72266 5.73145 15.0107 0 20.7412
l-28.1221 28.1318c-5.72168 5.72168 -15.0117 5.74023 -20.7412 0.00878906c-5.73047 -5.73047 -5.73047 -15.0283 0 -20.7588l28.1133 -28.123c2.87012 -2.86035 6.61035 -4.30078 10.3799 -4.30078c3.74121 0 7.50098 1.44141 10.3701 4.30078zM405.03 192.009
c8.10547 0 14.6709 6.56543 14.6709 14.6709c0 8.09766 -6.56641 14.6709 -14.6709 14.6709h-37.1729c-8.09766 0 -14.6719 -6.57324 -14.6719 -14.6709c0 -8.10547 6.57422 -14.6709 14.6719 -14.6709h37.1729z" />
    <glyph glyph-name="checkmark" unicode="&#xf038;" 
d="M377.348 261.155l-151.239 -168.104c-4.33691 -4.8125 -11.7559 -5.2168 -16.5869 -0.888672l-69.2754 62.9014c-12.0576 10.8281 -14.4785 27.8018 -5.40137 37.916c9.08691 10.1123 26.2158 9.53516 38.2734 -1.29395l39.2715 -35.9629l126.198 140.22
c10.8467 12.0391 28.3154 14.0107 39.0068 4.40918c10.6924 -9.60059 10.582 -27.1484 -0.24707 -39.1973z" />
    <glyph glyph-name="checkmark_button" unicode="&#xf037;" 
d="M256 448c141.382 0 256 -114.617 256 -256c0 -141.382 -114.618 -256 -256 -256c-141.383 0 -256 114.618 -256 256c0 141.383 114.617 256 256 256zM377.348 261.155c10.8291 12.0488 10.9395 29.5977 0.24707 39.1982
c-10.6914 9.60156 -28.1602 7.62988 -39.0068 -4.40918l-126.198 -140.219l-39.2715 35.9629c-12.0576 10.8281 -29.1865 11.4053 -38.2734 1.29297c-9.07715 -10.1143 -6.65625 -27.0879 5.40137 -37.916l69.2754 -62.9014
c4.83105 -4.32812 12.25 -3.92383 16.5869 0.888672z" />
    <glyph glyph-name="cogwheel" unicode="&#xf03a;" 
d="M255.933 143.676c-26.4062 0 -47.8057 21.4092 -47.8057 47.8145c0 26.4033 21.3994 47.8105 47.8057 47.8105c26.4072 0 47.8164 -21.4072 47.8164 -47.8105c0 -26.4053 -21.4092 -47.8145 -47.8164 -47.8145zM360.314 215.686h-11.9746
c-2.30469 8.82617 -5.81543 17.1377 -10.3877 24.7754l8.55762 8.55762c9.24805 9.24805 9.24805 24.2461 0 33.4941s-24.2461 9.24805 -33.4941 0l-8.66309 -8.66113c-7.60742 4.49023 -15.8887 7.92871 -24.667 10.1709v12.2959
c0 13.0801 -10.6045 23.6816 -23.6855 23.6816s-23.6855 -10.6016 -23.6855 -23.6826v-12.2607c-8.79199 -2.2373 -17.0928 -5.66797 -24.7207 -10.1553l-8.61035 8.60938c-9.24805 9.24805 -24.2461 9.24805 -33.4941 0s-9.24805 -24.2461 0 -33.4941l8.4668 -8.46875
c-4.58984 -7.66504 -8.12695 -16.0039 -10.4414 -24.8643h-11.8301c-13.082 0 -23.6855 -10.6016 -23.6855 -23.6826c0 -13.0791 10.6035 -23.6826 23.6855 -23.6826h11.5625c2.24805 -8.99414 5.73633 -17.4668 10.3262 -25.2471l-8.08301 -8.0791
c-9.24805 -9.24805 -9.24805 -24.2451 0 -33.4932c4.62402 -4.62891 10.6855 -6.93848 16.7471 -6.93848s12.123 2.31055 16.7471 6.93848l7.97754 7.97266c7.80566 -4.66699 16.3164 -8.23047 25.3535 -10.5303v-11.2568
c-0.000976562 -13.0811 10.6035 -23.6846 23.6846 -23.6846s23.6855 10.6035 23.6855 23.6855v11.2842c9.02246 2.31055 17.5098 5.88379 25.3008 10.5518l8.0293 -8.02148c4.61914 -4.62891 10.6865 -6.93848 16.7422 -6.93848c6.06641 0 12.1279 2.31055 16.752 6.93848
c9.24805 9.24805 9.24805 24.2451 0 33.4932l-8.1748 8.16504c4.5625 7.7627 8.03613 16.2061 10.2734 25.1611h11.7061c13.082 0 23.6855 10.6035 23.6855 23.6826c0 13.0811 -10.6035 23.6836 -23.6855 23.6836z" />
    <glyph glyph-name="cogwheel_button" unicode="&#xf039;" 
d="M255.933 239.301c26.4072 0 47.8164 -21.4072 47.8164 -47.8105c0 -26.4053 -21.4092 -47.8145 -47.8164 -47.8145c-26.4062 0 -47.8057 21.4092 -47.8057 47.8145c0 26.4033 21.3994 47.8105 47.8057 47.8105zM256 448c141.382 0 256 -114.617 256 -256
c0 -141.382 -114.618 -256 -256 -256c-141.383 0 -256 114.618 -256 256c0 141.383 114.617 256 256 256zM360.314 168.319c13.082 0 23.6855 10.6045 23.6865 23.6826c0 13.0811 -10.6035 23.6826 -23.6855 23.6826h-11.9756
c-2.30469 8.82617 -5.81641 17.1377 -10.3877 24.7754l8.55762 8.55762c9.24805 9.24805 9.24805 24.2461 0 33.4941s-24.2461 9.24805 -33.4941 0l-8.66309 -8.66113c-7.60742 4.49023 -15.8887 7.92871 -24.667 10.1709v12.2959
c0 13.0811 -10.6045 23.6826 -23.6855 23.6826s-23.6855 -10.6016 -23.6865 -23.6816v-12.2607c-8.79395 -2.2373 -17.0928 -5.66895 -24.7207 -10.1553l-8.61035 8.60938c-9.24805 9.24805 -24.2461 9.24805 -33.4941 0s-9.24805 -24.2461 0 -33.4941l8.4668 -8.46875
c-4.58984 -7.66504 -8.12695 -16.0049 -10.4414 -24.8643h-11.8301c-13.082 0 -23.6855 -10.6016 -23.6855 -23.6826c0 -13.0791 10.6035 -23.6826 23.6855 -23.6826h11.5625c2.24707 -8.99414 5.73633 -17.4668 10.3262 -25.2471l-8.08301 -8.0791
c-9.24805 -9.24805 -9.24805 -24.2451 0 -33.4932c4.62402 -4.62793 10.6855 -6.93848 16.7471 -6.93848c6.06055 0 12.123 2.30957 16.7471 6.93848l7.97754 7.97266c7.80566 -4.66699 16.3164 -8.23047 25.3535 -10.5303v-11.2568
c0 -13.082 10.6045 -23.6855 23.6855 -23.6855s23.6855 10.6035 23.6855 23.6855v11.2842c9.02344 2.31055 17.5098 5.88379 25.3008 10.5518l8.0293 -8.02148c4.61914 -4.62793 10.6855 -6.93848 16.7422 -6.93848c6.06641 0 12.1279 2.30957 16.752 6.93848
c9.24805 9.24805 9.24805 24.2451 0 33.4932l-8.1748 8.16504c4.56152 7.7627 8.03613 16.2061 10.2734 25.1611h11.7061z" />
    <glyph glyph-name="cross" unicode="&#xf03c;" 
d="M346.502 139.515c13.7451 -13.7539 14.9922 -34.8154 2.77832 -47.0391c-12.2324 -12.2139 -33.2852 -10.9756 -47.0303 2.76074l-45.6543 45.6533l-45.6445 -45.6533c-13.7363 -13.7354 -34.7979 -14.9746 -47.0215 -2.76074
c-12.2227 12.2236 -10.9844 33.2852 2.76953 47.0303l45.6455 45.6357l-45.6533 45.6543c-13.7451 13.7539 -14.9834 34.8066 -2.76074 47.0293c12.2236 12.2139 33.2852 10.9756 47.0215 -2.77832l45.6445 -45.6445l45.6543 45.6445
c13.7451 13.7539 34.8076 14.9922 47.0303 2.77051c12.2139 -12.2148 10.9756 -33.2676 -2.77051 -47.0215l-45.6455 -45.6543z" />
    <glyph glyph-name="cross_button" unicode="&#xf03b;" 
d="M256 448c141.382 0 256 -114.617 256 -256c0 -141.382 -114.618 -256 -256 -256c-141.383 0 -256 114.618 -256 256c0 141.383 114.617 256 256 256zM346.502 139.515l-45.6367 45.627l45.6455 45.6543c13.7461 13.7539 14.9844 34.8066 2.77051 47.0215
c-12.2227 12.2217 -33.2852 10.9834 -47.0303 -2.77051l-45.6543 -45.6445l-45.6445 45.6445c-13.7363 13.7539 -34.7979 14.9922 -47.0215 2.77832c-12.2227 -12.2227 -10.9844 -33.2754 2.76074 -47.0293l45.6533 -45.6543l-45.6455 -45.6357
c-13.7539 -13.7451 -14.9922 -34.8066 -2.76953 -47.0303c12.2236 -12.2139 33.2852 -10.9746 47.0215 2.76074l45.6445 45.6533l45.6543 -45.6533c13.7451 -13.7363 34.7979 -14.9746 47.0303 -2.76074c12.2139 12.2236 10.9668 33.2852 -2.77832 47.0391z" />
    <glyph glyph-name="download" unicode="&#xf03e;" 
d="M243.429 138.543l-67.0439 70.6729c-10.334 10.8867 -6.39941 19.7197 8.60645 19.7061h46.8857l0.226562 67.0439c0.0224609 13.2568 10.7959 24.0234 24.0107 24.0088c13.2705 -0.0136719 23.7822 -10.7588 23.7822 -24.0088v-67.2705h47.1113
c15.0215 -0.015625 18.7363 -8.83398 8.38086 -19.7061l-67.0439 -70.4463c-6.90039 -7.24805 -18.0205 -7.26172 -24.916 0zM332.218 112.27c15.0195 0 27.1807 -10.9141 27.1816 -24.2354c0 -13.3203 -12.1611 -24.0078 -27.1816 -24.0078h-152.436
c-15.0059 0 -27.1816 10.6875 -27.1816 24.0078c0 13.3223 12.1758 24.2354 27.1816 24.2354h152.436z" />
    <glyph glyph-name="download_button" unicode="&#xf03d;" 
d="M256 448c141.382 0 256 -114.617 256 -256c0 -141.382 -114.618 -256 -256 -256c-141.383 0 -256 114.618 -256 256c0 141.383 114.617 256 256 256zM185.104 228.981c-15.0049 0.0146484 -18.9395 -8.81934 -8.60547 -19.707l67.0439 -70.6729
c6.89355 -7.26172 18.0146 -7.24805 24.916 0l67.0439 70.4463c10.3555 10.873 6.63965 19.6924 -8.38086 19.7061h-47.1123v67.2715c0 13.25 -10.5107 23.9941 -23.7832 24.0088c-13.2148 0.0136719 -23.9873 -10.752 -24.0088 -24.0088l-0.226562 -67.0439h-46.8867z
M332.331 64.085c15.0195 0 27.1807 10.6885 27.1807 24.0088c0 13.3213 -12.1611 24.2354 -27.1807 24.2354h-152.437c-15.0059 0 -27.1797 -10.9141 -27.1797 -24.2354c0 -13.3203 12.1738 -24.0088 27.1797 -24.0088h152.437z" />
    <glyph glyph-name="file-pdf" unicode="&#xf041;" 
d="M270.799 320.995l88.9893 -87.999v-135.725c0 -12.9668 -10.5078 -23.4756 -23.4736 -23.4756h-134.974c-12.9658 0 -23.4736 10.5088 -23.4736 23.4756v94.7373h-30.8096c-6.48242 0 -11.7363 5.25391 -11.7363 11.7373v35.21
c0 6.47266 5.25488 11.7373 11.7363 11.7373h30.8096v46.8281c0 12.9658 10.5088 23.4736 23.4736 23.4736h69.458zM336.187 107.431v137.45h-65.2676v55.585h-56.7773c-7.0498 0 -12.7539 -5.71289 -12.7539 -12.7637v-37.0078h54.2461
c6.4834 0 11.7373 -5.26367 11.7373 -11.7373v-35.21c0 -6.4834 -5.25391 -11.7373 -11.7373 -11.7373h-54.2461v-84.5791c0 -7.04199 5.70312 -12.7549 12.7539 -12.7549h109.28c7.05176 0 12.7646 5.71289 12.7646 12.7549z" />
    <glyph glyph-name="file-pdf_button" unicode="&#xf040;" 
d="M256 448c141.382 0 256 -114.617 256 -256c0 -141.382 -114.618 -256 -256 -256c-141.383 0 -256 114.618 -256 256c0 141.383 114.617 256 256 256zM359.788 97.2725v135.725l-88.9893 87.999h-69.457c-12.9658 0 -23.4736 -10.5088 -23.4736 -23.4736v-46.8281
h-30.8105c-6.48145 0 -11.7354 -5.26367 -11.7354 -11.7373v-35.21c0 -6.4834 5.25391 -11.7373 11.7354 -11.7373h30.8105v-94.7373c0 -12.9678 10.5078 -23.4756 23.4736 -23.4756h134.973c12.9658 0 23.4736 10.5078 23.4736 23.4756zM214.142 300.465h56.7773v-55.585
h65.2676v-137.45c0 -7.04102 -5.71289 -12.7539 -12.7646 -12.7539h-109.28c-7.05078 0 -12.7539 5.71289 -12.7539 12.7539v84.5791h54.2461c6.48242 0 11.7363 5.25391 11.7363 11.7373v35.21c0 6.47266 -5.25391 11.7373 -11.7363 11.7373h-54.2461v37.0078
c0 7.05078 5.70312 12.7637 12.7539 12.7637z" />
    <glyph glyph-name="file" unicode="&#xf042;" 
d="M247.029 222.088c0 -12.9658 10.5088 -23.4736 23.4775 -23.4736h70.4238v-103.43c0 -6.49121 -5.24609 -11.7363 -11.7373 -11.7363h-138.641c-6.49219 0 -11.7363 5.24512 -11.7363 11.7363v189.99c0 6.4834 5.24414 11.7373 11.7363 11.7373h56.4766v-74.8242z
M287.747 227.847c-6.49219 0 -11.7373 5.25391 -11.7373 11.7373v71.7432l82.1602 -83.4805h-70.4229z" />
    <glyph glyph-name="file_button" unicode="&#xf03f;" 
d="M256 448c141.382 0 256 -114.617 256 -256c0 -141.382 -114.618 -256 -256 -256c-141.383 0 -256 114.618 -256 256c0 141.383 114.617 256 256 256zM340.932 95.1865h0.000976562v103.429h-70.4238c-12.9697 0 -23.4785 10.5078 -23.4785 23.4736v74.8242h-56.4766
c-6.49219 0 -11.7363 -5.25391 -11.7363 -11.7373v-189.989c0 -6.49121 5.24414 -11.7373 11.7363 -11.7373h138.641c6.49121 0 11.7373 5.24609 11.7373 11.7373zM287.747 227.847h70.4229l-82.1602 83.4805v-71.7432c0 -6.4834 5.24512 -11.7373 11.7373 -11.7373z" />
    <glyph glyph-name="files" unicode="&#xf044;" 
d="M304.259 348.391l77.2529 -76.2549v-147.479c0 -12.9482 -10.5176 -23.4756 -23.4736 -23.4756h-49.8818v-21.2725c0 -12.9482 -10.5176 -23.4746 -23.4746 -23.4746h-134.973c-12.9658 0 -23.4736 10.5273 -23.4736 23.4746v200.261
c0 12.9658 10.5088 23.4736 23.4736 23.4736h49.8809v21.2744c0 12.9658 10.5088 23.4736 23.4746 23.4736h81.1943zM272.816 101.824h0.000976562v116.816h-60.0967v52.7344h-38.4746c-7.05078 0 -12.7734 -5.72168 -12.7734 -12.7637v-156.787
c0 -7.06152 5.72168 -12.7656 12.7734 -12.7656h85.7979c7.05859 0 12.7725 5.7041 12.7725 12.7656zM346.3 146.278v117.844h-60.2236v51.9551h-38.5117c-7.05273 0 -12.7646 -5.72168 -12.7646 -12.7734l73.3564 -75.916v-93.8916h25.3721
c7.0498 0 12.7715 5.7207 12.7715 12.7822z" />
    <glyph glyph-name="files_button" unicode="&#xf043;" 
d="M212.721 271.375h-0.000976562v-52.7344h60.0967v-116.815c0 -7.06152 -5.71289 -12.7666 -12.7725 -12.7666h-85.7979c-7.05078 0 -12.7734 5.70508 -12.7734 12.7666v156.786c0 7.04199 5.72168 12.7637 12.7734 12.7637h38.4746zM286.076 316.078h-0.00195312
v-51.9551h60.2236v-117.845c0 -7.06055 -5.7207 -12.7812 -12.7715 -12.7812h-25.3721v93.8916l-73.3545 75.916c0 7.05176 5.71191 12.7734 12.7646 12.7734h38.5117zM256 448c141.382 0 256 -114.617 256 -256c0 -141.382 -114.618 -256 -256 -256
c-141.383 0 -256 114.618 -256 256c0 141.383 114.617 256 256 256zM381.511 124.657v147.479l-77.252 76.2549h-81.1943c-12.9658 0 -23.4746 -10.5078 -23.4746 -23.4736v-21.2744h-49.8809c-12.9658 0 -23.4736 -10.5078 -23.4736 -23.4736v-200.26
c0 -12.9482 10.5078 -23.4756 23.4736 -23.4756h134.972c12.957 0 23.4746 10.5283 23.4746 23.4756v21.2725h49.8818c12.9561 0 23.4736 10.5283 23.4736 23.4756z" />
    <glyph glyph-name="group" unicode="&#xf046;" 
d="M422.65 107.326c1.43066 -5.77734 -1.83398 -10.582 -6.91406 -10.583h-236.426c-5.08887 0 -8.36133 4.80469 -6.92285 10.582c14.8193 59.9688 59.3281 104.823 113.343 110.581c-23.25 5.20898 -40.6631 25.8945 -40.6631 50.7354
c0 28.7568 23.3135 52.0654 52.0518 52.0654c28.7559 0 52.083 -23.3086 52.083 -52.0654c0 -24.749 -17.2939 -45.3428 -40.4199 -50.6523c54.2646 -5.51172 99.0137 -50.4922 113.868 -110.663zM232.496 217.155c-29.1875 -16.4414 -53.1387 -43.4775 -68.1582 -77.0391
h-62.5283c-5.70312 0 -9.39844 4.29199 -7.65625 9.44336c13.0664 38.7383 49.3506 67.6045 93.3926 72.0518c-20.5117 5.02441 -35.7891 23.3916 -35.7891 45.4629c0 25.9414 21.0273 46.9492 46.9492 46.9492c15.4141 0 28.9854 -7.52832 37.5488 -19.0186
c-3.73047 -8.23535 -5.8584 -17.3486 -5.8584 -26.9678c0 -10.0312 2.48438 -19.3945 6.52832 -27.8848c-6.37305 -8.9502 -15.7256 -15.6445 -26.7021 -18.4316c7.72168 -0.714844 15.0938 -2.42969 22.2734 -4.56543z" />
    <glyph glyph-name="group_button" unicode="&#xf045;" 
d="M256 448c141.382 0 256 -114.617 256 -256c0 -141.382 -114.618 -256 -256 -256c-141.383 0 -256 114.618 -256 256c0 141.383 114.617 256 256 256zM101.81 140.116h62.5283c15.0205 33.5605 38.9707 60.5977 68.1582 77.0391
c-7.17969 2.13574 -14.5518 3.84961 -22.2734 4.56543c10.9766 2.78711 20.3291 9.48242 26.7021 18.4316c-4.04395 8.49023 -6.52832 17.8535 -6.52832 27.8848c0 9.61914 2.12793 18.7344 5.8584 26.9678c-8.56348 11.4902 -22.1348 19.0186 -37.5488 19.0186
c-25.9229 0 -46.9492 -21.0088 -46.9492 -46.9492c0 -22.0713 15.2773 -40.4385 35.7891 -45.4629c-44.042 -4.44727 -80.3262 -33.3145 -93.3926 -72.0518c-1.74219 -5.15137 1.95312 -9.44336 7.65625 -9.44336zM415.736 96.7441
c5.08008 0 8.34473 4.80469 6.91504 10.583c-14.8545 60.1709 -59.6025 105.151 -113.868 110.663c23.126 5.30859 40.4199 25.9033 40.4199 50.6523c0 28.7568 -23.3271 52.0654 -52.083 52.0654c-28.7393 0 -52.0518 -23.3086 -52.0518 -52.0654
c0 -24.8408 17.4131 -45.5273 40.6631 -50.7354c-54.0146 -5.75879 -98.5244 -50.6123 -113.343 -110.581c-1.43848 -5.77734 1.83398 -10.582 6.92285 -10.582h236.425z" />
    <glyph glyph-name="hierarchy" unicode="&#xf048;" 
d="M404.951 102.938c0 -7.13477 -5.77539 -12.9102 -12.918 -12.9102h-47.3613c-7.13281 0 -12.9199 5.77539 -12.9199 12.9102v22.6016c0 7.14355 5.78711 12.9199 12.9199 12.9199h13.6543v55.0068c0 6.4834 -5.25391 11.7373 -11.7383 11.7373h-79.4707v-67.7158h13.416
c7.14258 0 12.9199 -5.77734 12.9199 -12.9199v-22.6035c0 -7.14258 -5.77734 -12.9199 -12.9199 -12.9199h-47.3604c-7.13379 0 -12.9189 5.77734 -12.9189 12.9199v22.6035c0 7.14258 5.78613 12.9199 12.9189 12.9199h12.9189v67.7158h-79.4707
c-6.4834 0 -11.7373 -5.25391 -11.7373 -11.7373v-55.0068h12.4346c7.14258 0 12.9189 -5.77637 12.9189 -12.9199v-22.6035c0 -7.13379 -5.77637 -12.9092 -12.9189 -12.9092h-47.3604c-7.13379 0 -12.9102 5.77539 -12.9102 12.9092v22.6035
c0 7.14355 5.77637 12.9199 12.9102 12.9199h13.6533v64.3047c0 12.957 10.5078 23.4746 23.4736 23.4746h89.7959v66.249h-13.708c-7.13379 0 -12.9189 5.77539 -12.9189 12.9102v22.6016c0 7.14355 5.78613 12.9199 12.9189 12.9199h47.3604
c7.14258 0 12.9199 -5.77637 12.9199 -12.9199v-22.6025c0 -7.13477 -5.77734 -12.9102 -12.9199 -12.9102h-13.6826v-66.249h87.8076c12.9648 0 23.4727 -10.5176 23.4727 -23.4746v-64.3047h13.9023c7.14258 0 12.918 -5.77637 12.918 -12.9199v-22.6006z" />
    <glyph glyph-name="hierarchy2" unicode="&#xf04a;" 
d="M372.898 134.425c6.1377 0 11.1016 -4.96289 11.1016 -11.1016v-32.4326c0 -6.12988 -4.96387 -11.1016 -11.1016 -11.1016h-40.6973c-6.1377 0 -11.1025 4.97168 -11.1025 11.1016v32.4326c0 6.13867 4.96484 11.1016 11.1025 11.1016h40.6973zM277.085 133.59
c6.1377 0 11.1035 -4.96387 11.1035 -11.1016v-32.4326c0 -6.1377 -4.96582 -11.1016 -11.1035 -11.1016h-40.6973c-6.1377 0 -11.1016 4.96387 -11.1016 11.1016v32.4326c0 6.1377 4.96387 11.1016 11.1016 11.1016h40.6973zM179.807 134.425
c6.12207 0 11.0859 -4.96289 11.0859 -11.1016v-32.4326c0 -6.12988 -4.96387 -11.1016 -11.0859 -11.1016h-40.6963c-6.13867 0 -11.1104 4.97168 -11.1104 11.1016v32.4326c0 6.13867 4.97168 11.1016 11.1104 11.1016h40.6963zM169.106 174.973h0.000976562v-19.7461
h-18.2803v27.7354c0 11.1406 9.03809 20.1709 20.1709 20.1709h77.1699v26.6885h17.1533v-26.6885h75.46c11.1338 0 20.1719 -9.0293 20.1719 -20.1709v-27.7354h-17.0205v19.7461c0 5.57031 -4.51465 10.085 -10.0859 10.085h-154.654
c-5.57129 0 -10.0859 -4.51465 -10.0859 -10.085zM236.388 250.409c-6.1377 0 -11.1016 4.96387 -11.1016 11.1016v32.4326c0 6.1377 4.96387 11.1016 11.1016 11.1016h40.6973c6.1377 0 11.1035 -4.96387 11.1035 -11.1016v-32.4326
c0 -6.1377 -4.96582 -11.1016 -11.1035 -11.1016h-40.6973z" />
    <glyph glyph-name="hierarchy2_button" unicode="&#xf049;" 
d="M256 448c141.382 0 256 -114.617 256 -256c0 -141.382 -114.618 -256 -256 -256c-141.383 0 -256 114.618 -256 256c0 141.383 114.617 256 256 256zM225.286 293.942v-32.4326c0 -6.1377 4.96387 -11.1016 11.1025 -11.1016h40.6963
c6.1377 0 11.1035 4.96387 11.1035 11.1016v32.4326c0 6.1377 -4.96582 11.1016 -11.1035 11.1016h-40.6963c-6.13867 0 -11.1025 -4.96387 -11.1025 -11.1016zM150.826 182.961v-27.7354h18.2803v19.7461c0 5.57031 4.51562 10.084 10.0859 10.084h154.654
c5.57129 0 10.0859 -4.51367 10.0859 -10.084v-19.7461h17.0205v27.7344c0 11.1416 -9.03809 20.1719 -20.1719 20.1719h-75.46v26.6885h-17.1533v-26.6875h-77.1699c-11.1338 0 -20.1719 -9.03027 -20.1719 -20.1719zM190.894 90.8906v32.4326
c0 6.13867 -4.96484 11.1016 -11.0869 11.1016h-40.6963c-6.1377 0 -11.1094 -4.96289 -11.1094 -11.1016v-32.4326c0 -6.12891 4.9707 -11.1016 11.1094 -11.1016h40.6963c6.12207 0 11.0869 4.97266 11.0869 11.1016zM288.188 90.0566v32.4326
c0 6.13672 -4.96582 11.1016 -11.1035 11.1016h-40.6963c-6.13867 0 -11.1025 -4.96484 -11.1025 -11.1016v-32.4326c0 -6.13867 4.96387 -11.1016 11.1025 -11.1016h40.6963c6.1377 0 11.1035 4.96289 11.1035 11.1016zM384 90.8906v32.4326
c0 6.13867 -4.96387 11.1016 -11.1016 11.1016h-40.6973c-6.1377 0 -11.1025 -4.96289 -11.1025 -11.1016v-32.4326c0 -6.12891 4.96484 -11.1016 11.1025 -11.1016h40.6973c6.1377 0 11.1016 4.97266 11.1016 11.1016z" />
    <glyph glyph-name="hierarchy_button" unicode="&#xf047;" 
d="M256 448c141.382 0 256 -114.617 256 -256c0 -141.382 -114.618 -256 -256 -256c-141.383 0 -256 114.618 -256 256c0 141.383 114.617 256 256 256zM404.951 102.938v22.6006c0 7.14453 -5.77539 12.9199 -12.918 12.9199h-13.9023v64.3047
c0 12.957 -10.5078 23.4746 -23.4727 23.4746h-87.8076v66.249h13.6826c7.14258 0 12.9199 5.77539 12.9199 12.9102v22.6025c0 7.14355 -5.77734 12.9199 -12.9199 12.9199h-47.3604c-7.13281 0 -12.9189 -5.77637 -12.9189 -12.9199v-22.6016
c0 -7.13477 5.78516 -12.9102 12.9189 -12.9102h13.708v-66.249h-89.7959c-12.9658 0 -23.4736 -10.5176 -23.4736 -23.4746v-64.3047h-13.6533c-7.13379 0 -12.9102 -5.77539 -12.9102 -12.9199v-22.6016c0 -7.13574 5.77637 -12.9102 12.9102 -12.9102h47.3604
c7.14258 0 12.9189 5.77441 12.9189 12.9102v22.6016c0 7.14453 -5.77637 12.9199 -12.9189 12.9199h-12.4346v55.0068c0 6.4834 5.25391 11.7373 11.7373 11.7373h79.4707v-67.7148h-12.9189c-7.13281 0 -12.9189 -5.77734 -12.9189 -12.9199v-22.6045
c0 -7.14258 5.78516 -12.9199 12.9189 -12.9199h47.3604c7.14258 0 12.9199 5.77734 12.9199 12.9199v22.6045c0 7.14258 -5.77734 12.9199 -12.9199 12.9199h-13.416v67.7148h79.4707c6.48438 0 11.7383 -5.25391 11.7383 -11.7373v-55.0068h-13.6543
c-7.13281 0 -12.9199 -5.77539 -12.9199 -12.9199v-22.6016c0 -7.13574 5.78711 -12.9102 12.9199 -12.9102h47.3613c7.14258 0 12.918 5.77441 12.918 12.9102z" />
    <glyph glyph-name="home" unicode="&#xf04c;" 
d="M113.2 187l135.5 137.5c4 4 10 4 14.0996 0l135.5 -134.5c8 -8 5 -14.0996 -6 -14.0996h-27.0996v-109.4c0 -6 -4 -10 -10 -10h-68.2998v64.2998c0 6 -4 10 -10 10h-43.2002c-6 0 -10 -4 -10 -10v-64.2998h-66.2998c-6 0 -10 4 -10 10v106.4h-27.1006
c-12.0996 0 -14.0996 7.09961 -7.09961 14.0996z" />
    <glyph glyph-name="home_button" unicode="&#xf04b;" 
d="M256 448c141.4 0 256 -114.6 256 -256s-114.6 -256 -256 -256s-256 114.6 -256 256s114.6 256 256 256zM395.2 175.6c11.2998 0 14.3994 6.10059 5.89941 14.4004l-138.399 137.4c-4.10059 4.09961 -10.2998 4.09961 -14.4004 0l-138.399 -140.5
c-7.2002 -7.2002 -5.10059 -14.4004 7.19922 -14.4004h27.7002v-108.7c0 -6.2002 4.10059 -10.2998 10.2998 -10.2998h67.7002v65.5996c0 6.2002 4.10059 10.3008 10.2998 10.3008h44.1006c6.2002 0 10.2998 -4.10059 10.2998 -10.3008v-65.5996h69.7002
c6.2002 0 10.2998 4.09961 10.2998 10.2998v111.8h27.7002z" />
    <glyph glyph-name="important" unicode="&#xf04e;" 
d="M284.6 61.4004c-8.19922 -7.60059 -17.5996 -11.6006 -28.5996 -11.6006s-20.5996 3.7998 -28.7998 11.6006c-8.2002 7.7998 -12.4004 17.1992 -12.4004 28c0 10.7998 4.2002 20.3994 12.4004 28.1992c8 7.80078 17.7998 11.8008 28.7998 11.8008
c10.7998 0 20.5996 -4 28.5996 -11.8008c8.2002 -7.7998 12.4004 -17.3994 12.4004 -28.1992c0 -10.8008 -4.2002 -20.4004 -12.4004 -28zM294.6 273c-1.7998 -8.40039 -4 -18.2002 -6.7998 -29.5996c-2.59961 -10.6006 -5.59961 -23.8008 -8.7998 -39.8008
c-2.7998 -13.1992 -5.59961 -26.5996 -8.7998 -45.1992c-1 -5.80078 -6.60059 -10.6006 -12.4004 -10.6006h-3.59961c-5.7998 0 -11.4004 4.60059 -12.4004 10.6006c-3.2002 19 -6 32.3994 -8.7998 45.3994c-3.40039 15.6006 -6.40039 28.6006 -8.7998 39.4004
c-2.40039 9.7998 -4.60059 19.3994 -6.60059 28.7998c-2 9.59961 -3 17 -3 22.2002c0 11 4.2002 20.5996 12.2002 28.2002c8 7.59961 17.7998 11.5996 29 11.5996s20.7998 -3.7998 29 -11.5996c8.2002 -7.80078 12.6006 -17.4004 12.6006 -28.2002
c0 -5.2002 -0.800781 -12.2002 -2.80078 -21.2002z" />
    <glyph glyph-name="important_button" unicode="&#xf04d;" 
d="M256 448c141.4 0 256 -114.6 256 -256s-114.6 -256 -256 -256s-256 114.6 -256 256s114.6 256 256 256zM284.8 61.5996c8 7.60059 12.2002 17.2002 12.2002 28c0 11 -4 20.4004 -12.2002 28.2002s-17.7998 11.7998 -28.5996 11.7998c-11 0 -20.6006 -4 -28.7998 -11.7998
c-8 -7.7998 -12.2002 -17.3994 -12.2002 -28.2002c0 -10.7998 4 -20.3994 12.2002 -28c8 -7.7998 17.7998 -11.5996 28.7998 -11.5996c10.7998 0 20.3994 3.7998 28.5996 11.5996zM294.4 273c2 8.7998 2.7998 15.5996 3.19922 21c0 11 -4.19922 20.5996 -12.3994 28.2002
c-8.2002 7.7998 -17.7998 11.5996 -29 11.5996c-11.4004 0 -21.2002 -3.7998 -29.2002 -11.5996s-12.2002 -17.2002 -12.2002 -28.2002c0 -5 1 -12.4004 3.2002 -22c2 -9.40039 4 -19 6.40039 -28.7998c2.59961 -10.7998 5.59961 -23.7998 8.7998 -39.4004
c2.7998 -13 5.59961 -26.3994 8.7998 -45.2002c0.799805 -5.7998 6.40039 -10.3994 12.2002 -10.3994h3.59961c5.7998 0 11.4004 4.59961 12.2002 10.3994c3 18.8008 6 32 8.7998 45.2002c3.2002 15.7998 6.2002 29 8.7998 39.6006
c2.60059 11.3994 5 21.1992 6.80078 29.5996z" />
    <glyph glyph-name="info" unicode="&#xf050;" 
d="M302.929 92.7324c3.99805 1.87988 9.65527 0.825195 7.89453 -8.41797c-0.202148 -1.02637 -0.541016 -3.0625 -0.917969 -4.02539c-2.90625 -7.25293 -4.96875 -11.874 -16.8984 -18.7148c-3.06152 -1.74219 -13.0391 -5.87695 -13.0391 -5.87695
c-1.26465 -0.632812 -5.05176 -1.84473 -11.6533 -4.13672c-7.31738 -2.54883 -15.8174 -3.83301 -25.2529 -3.83301c-15.1562 0 -27.2598 3.9248 -36.0264 11.6094c-9.06934 7.97656 -13.6533 18.1914 -13.6533 30.3965c0 4.20801 0.321289 8.56348 0.908203 12.9189
c0.595703 4.25391 1.52344 9.11328 2.78809 14.4414l16.0918 58.4639c1.14648 4.35547 2.15527 8.61035 2.93359 12.6162c0.734375 3.62305 1.11035 6.95215 1.11035 9.89551c0 5.95996 -1.39355 7.37207 -1.46777 7.41797
c-0.0185547 0.0185547 -1.78711 1.99902 -9.38867 1.5498l-11.5723 -3.05371c-14.0469 -5.78613 -21.209 4.0332 -19.8789 9.48926c0 0 -0.523438 -0.943359 0.796875 3.65918c1.32129 4.60352 9.85645 12.1865 16.5508 15.8545
c2.18164 1.20996 9.51855 4.51074 9.51855 4.51074c9.08691 3.68555 2.81348 1.30176 11.2227 3.96094c8.93066 2.83301 17.5225 4.26367 25.5918 4.26367c15.0557 0 27.0322 -3.85938 35.5771 -11.4707c8.83984 -7.86719 13.2959 -18.1367 13.2959 -30.543
c0 -2.22656 -0.24707 -6.18945 -0.788086 -11.8369c-0.550781 -5.77734 -1.55859 -11.1865 -3.01758 -16.0918l-15.918 -57.8682c-1.05469 -3.67676 -1.65039 -10.251 -2.50293 -14.9092c-0.999023 -5.59375 -1.20996 -8.50977 -1.20996 -9.97656
c0 -4.72266 0.962891 -6.77539 1.47656 -7.16992c0.358398 -0.302734 2.60352 -1.7793 10.1318 -1.7793c2.62207 0 5.72168 0.466797 9.25195 1.43848c4.93262 1.37598 3.5127 0.991211 4.32715 1.39551c0 0 9.7207 3.92383 13.7178 5.82227zM242.604 270.802
c-7.49121 6.89551 -11.2783 15.3867 -11.2773 25.252c0 9.85742 3.78711 18.376 11.251 25.3174c7.29883 6.80371 16.1748 10.251 26.3252 10.251c10.1963 0 19.0264 -3.44727 26.3066 -10.2793c7.37207 -6.94043 11.1318 -15.4404 11.1318 -25.2891
c0 -9.84766 -3.78711 -18.3291 -11.1777 -25.2246c-7.24316 -6.74902 -16.0918 -10.1689 -26.2607 -10.1689c-10.1514 0 -19.0273 3.4209 -26.2988 10.1416z" />
    <glyph glyph-name="info_button" unicode="&#xf04f;" 
d="M256 448c141.382 0 256 -114.617 256 -256c0 -141.382 -114.618 -256 -256 -256c-141.383 0 -256 114.618 -256 256c0 141.383 114.617 256 256 256zM242.576 321.371c-7.46387 -6.94238 -11.251 -15.46 -11.251 -25.3174c0 -9.86523 3.78711 -18.3555 11.2773 -25.252
c7.27246 -6.72168 16.1484 -10.1416 26.2988 -10.1416c10.1689 0 19.0176 3.41992 26.2607 10.1689c7.39062 6.89453 11.1777 15.377 11.1777 25.2246c0 9.84863 -3.75977 18.3486 -11.1318 25.2891c-7.28125 6.83203 -16.1113 10.2793 -26.3066 10.2793
c-10.1504 0 -19.0264 -3.44727 -26.3252 -10.251zM310.824 84.3145c1.75977 9.24316 -3.89746 10.2979 -7.89453 8.41699c-3.99707 -1.89844 -13.7178 -5.82227 -13.7178 -5.82227c-0.814453 -0.405273 0.606445 -0.0195312 -4.32715 -1.39551
c-3.5293 -0.970703 -6.62988 -1.43848 -9.25195 -1.43848c-7.52734 0 -9.77441 1.47559 -10.1318 1.77832c-0.513672 0.395508 -1.47656 2.44824 -1.47656 7.1709c0 1.4668 0.210938 4.38281 1.20996 9.97656c0.852539 4.6582 1.44824 11.2324 2.50293 14.9092
l15.918 57.8682c1.45898 4.90527 2.4668 10.3154 3.01758 16.0918c0.541016 5.64746 0.788086 9.6084 0.788086 11.8369c0 12.4062 -4.45605 22.6758 -13.2959 30.543c-8.54492 7.61133 -20.5215 11.4707 -35.5771 11.4707c-8.06934 0 -16.6611 -1.43066 -25.5918 -4.26367
c-8.40918 -2.65918 -2.13574 -0.275391 -11.2227 -3.96094c0 0 -7.33691 -3.30078 -9.51855 -4.51074c-6.69434 -3.66797 -15.2295 -11.251 -16.5508 -15.8545c-1.32031 -4.60254 -0.796875 -3.65918 -0.796875 -3.65918
c-1.33008 -5.45605 5.83203 -15.2754 19.8789 -9.48926l11.5723 3.05371c7.60059 0.449219 9.37012 -1.53125 9.38867 -1.5498c0.0742188 -0.0458984 1.46777 -1.45801 1.46777 -7.41797c0 -2.94336 -0.375977 -6.27246 -1.10938 -9.89453
c-0.779297 -4.00586 -1.78809 -8.26074 -2.93457 -12.6162l-16.0918 -58.4639c-1.26562 -5.32812 -2.19238 -10.1865 -2.78809 -14.4414c-0.586914 -4.35645 -0.908203 -8.71094 -0.908203 -12.9189c0 -12.2051 4.58496 -22.4189 13.6533 -30.3965
c8.7666 -7.68359 20.8701 -11.6094 36.0273 -11.6094c9.43457 0 17.9346 1.28418 25.252 3.83301c6.60059 2.29199 10.3877 3.50391 11.6533 4.13672c0 0 9.97754 4.13477 13.0391 5.87695c11.9287 6.84082 13.9922 11.4619 16.8984 18.7148
c0.376953 0.962891 0.71582 2.99902 0.917969 4.02539z" />
    <glyph glyph-name="link" unicode="&#xf052;" 
d="M344.925 259.01c34.2568 0 62.1318 -31.5889 62.1318 -70.4297c0 -38.832 -27.875 -70.4209 -62.1318 -70.4209h-35.8896c-19.8418 0 -37.3457 10.7637 -48.6982 27.2324h46.04c0.887695 -0.0917969 1.75098 -0.330078 2.6582 -0.330078h35.8896
c19.4209 0 35.2373 19.5225 35.2373 43.5186c0 24.0049 -15.8164 43.5273 -35.2373 43.5273h-35.8896c-0.925781 0 -1.79688 -0.24707 -2.7041 -0.339844h-46.0127c11.3613 16.4775 28.875 27.2422 48.7168 27.2422h35.8896zM188.752 145.062
c0.907227 0 1.76953 0.239258 2.65918 0.330078h46.0576c-11.3604 -16.4678 -28.875 -27.2324 -48.7168 -27.2324h-35.8887c-34.2666 0 -62.1504 31.5889 -62.1504 70.4209c0 38.8418 27.8838 70.4297 62.1504 70.4297h35.8887c19.8418 0 37.3564 -10.7637 48.7168 -27.2422
h-46.0117c-0.899414 0.0917969 -1.7793 0.339844 -2.70508 0.339844h-35.8887c-19.4307 0 -35.2471 -19.5225 -35.2471 -43.5273c0 -23.9971 15.8164 -43.5186 35.2471 -43.5186h35.8887zM187.587 156.203c-42.3896 0 -42.3896 65.7256 0 65.7256h126.098
c42.3906 0 42.3906 -65.7256 0 -65.7256h-126.098z" />
    <glyph glyph-name="link_button" unicode="&#xf051;" 
d="M256 448c141.382 0 256 -114.617 256 -256c0 -141.382 -114.618 -256 -256 -256c-141.383 0 -256 114.618 -256 256c0 141.383 114.617 256 256 256zM188.751 118.159c19.8428 0 37.3564 10.7646 48.7168 27.2324h-46.0576
c-0.888672 -0.0917969 -1.75195 -0.330078 -2.65918 -0.330078h-35.8887c-19.4307 0 -35.2471 19.5225 -35.2471 43.5186c0 24.0049 15.8164 43.5273 35.2471 43.5273h35.8887c0.925781 0 1.80566 -0.24707 2.70508 -0.339844h46.0117
c-11.3604 16.4775 -28.875 27.2422 -48.7168 27.2422h-35.8887c-34.2666 0 -62.1504 -31.5879 -62.1504 -70.4297c0 -38.832 27.8838 -70.4209 62.1504 -70.4209h35.8887zM187.586 156.203h126.098c42.3906 0 42.3906 65.7256 0 65.7256h-126.098
c-42.3896 0 -42.3896 -65.7256 0 -65.7256zM344.925 118.159c34.2568 0 62.1318 31.5889 62.1318 70.4209c0 38.8418 -27.875 70.4297 -62.1318 70.4297h-35.8896c-19.8418 0 -37.3564 -10.7637 -48.7168 -27.2422h46.0127
c0.907227 0.0917969 1.77832 0.339844 2.7041 0.339844h35.8896c19.4209 0 35.2373 -19.5225 35.2373 -43.5273c0 -23.9971 -15.8164 -43.5186 -35.2373 -43.5186h-35.8896c-0.907227 0 -1.76953 0.238281 -2.6582 0.330078h-46.04
c11.3516 -16.4678 28.8564 -27.2324 48.6982 -27.2324h35.8896z" />
    <glyph glyph-name="lock-locked" unicode="&#xf054;" 
d="M325.304 218.915c10.8076 0 19.5674 -8.75977 19.5674 -19.5674v-115.779c0 -10.8076 -8.75879 -19.5674 -19.5674 -19.5674h-138.606c-10.7998 0 -19.5674 8.75879 -19.5674 19.5674v115.779c0 10.8076 8.76758 19.5674 19.5674 19.5674h3.27051v35.0449
c0 36.4219 29.626 66.04 66.04 66.04c36.4131 0 66.04 -29.6191 66.04 -66.04v-35.0449h3.25586zM219.319 253.96v-35.0449h73.377v35.0449c0 20.2324 -16.4629 36.6895 -36.6885 36.6895c-20.2314 0 -36.6885 -16.457 -36.6885 -36.6895z" />
    <glyph glyph-name="lock-locked_button" unicode="&#xf053;" 
d="M256.008 290.649c20.2246 0 36.6885 -16.4561 36.6885 -36.6895v-35.0449h-73.377v35.0449c0 20.2324 16.457 36.6895 36.6885 36.6895zM256 448c141.382 0 256 -114.617 256 -256c0 -141.382 -114.618 -256 -256 -256c-141.383 0 -256 114.618 -256 256
c0 141.383 114.617 256 256 256zM344.871 83.5674h-0.000976562v115.78c0 10.8076 -8.75879 19.5674 -19.5674 19.5674h-3.25586v35.0449c0 36.4219 -29.627 66.04 -66.04 66.04c-36.4141 0 -66.04 -29.6191 -66.04 -66.04v-35.0459h-3.27051
c-10.7998 0 -19.5674 -8.75879 -19.5674 -19.5674v-115.779c0 -10.8076 8.76758 -19.5674 19.5674 -19.5674h138.607c10.8076 0 19.5674 8.75879 19.5674 19.5674z" />
    <glyph glyph-name="lock-unlocked" unicode="&#xf056;" 
d="M325.304 218.915h-105.984v35.0449c0 20.2324 16.457 36.6895 36.6885 36.6895c20.2256 0 36.6885 -16.457 36.6885 -36.6895v-2.44629h29.3516v2.44629c0 36.4209 -29.627 66.04 -66.04 66.04c-36.4141 0 -66.04 -29.6182 -66.04 -66.04v-35.0449h-3.27051
c-10.7998 0 -19.5674 -8.75977 -19.5674 -19.5674v-115.779c0 -10.8086 8.76758 -19.5674 19.5674 -19.5674h138.606c10.8086 0 19.5674 8.75977 19.5674 19.5674v115.779c0 10.8076 -8.75977 19.5674 -19.5674 19.5674z" />
    <glyph glyph-name="lock-unlocked_button" unicode="&#xf055;" 
d="M256 448c141.382 0 256 -114.617 256 -256c0 -141.382 -114.618 -256 -256 -256c-141.383 0 -256 114.618 -256 256c0 141.383 114.617 256 256 256zM344.871 83.5674h-0.000976562v115.78c0 10.8076 -8.75879 19.5674 -19.5674 19.5674h-105.984v35.0449
c0 20.2324 16.457 36.6895 36.6885 36.6895c20.2246 0 36.6885 -16.457 36.6885 -36.6895v-2.44629h29.3516v2.44629c0 36.4219 -29.627 66.04 -66.04 66.04c-36.4141 0 -66.04 -29.6191 -66.04 -66.04v-35.0459h-3.27051c-10.7998 0 -19.5674 -8.75879 -19.5674 -19.5674
v-115.779c0 -10.8076 8.76758 -19.5674 19.5674 -19.5674h138.607c10.8076 0 19.5674 8.75879 19.5674 19.5674z" />
    <glyph glyph-name="magnifier" unicode="&#xf058;" 
d="M227.371 162.465c-33.0791 0 -59.9824 26.9062 -59.9824 59.9688c0 33.0703 26.9033 59.9736 59.9824 59.9736c33.0654 0 59.9648 -26.9023 59.9648 -59.9736c0 -33.0625 -26.8994 -59.9688 -59.9648 -59.9688zM376.116 100.469l-67.0391 68.8262
c9.98633 15.3115 15.8516 33.5439 15.8516 53.1387c0 53.8057 -43.7607 97.5664 -97.5576 97.5664s-97.5752 -43.7607 -97.5752 -97.5664c0 -53.793 43.7773 -97.5615 97.5752 -97.5615c18.6631 0 36.0615 5.35352 50.8848 14.4834l67.0811 -68.8594
c4.21191 -4.31348 9.80078 -6.49512 15.3896 -6.49512c5.4043 0 10.8086 2.03027 14.9863 6.0918c8.49219 8.27344 8.67773 21.8838 0.40332 30.376z" />
    <glyph glyph-name="magnifier_button" unicode="&#xf057;" 
d="M227.371 282.406c33.0654 0 59.9648 -26.9023 59.9648 -59.9736c0 -33.0625 -26.8994 -59.9688 -59.9648 -59.9688c-33.0791 0 -59.9824 26.9072 -59.9824 59.9688c0 33.0713 26.9033 59.9736 59.9824 59.9736zM256 448c141.382 0 256 -114.617 256 -256
c0 -141.382 -114.618 -256 -256 -256c-141.383 0 -256 114.618 -256 256c0 141.383 114.617 256 256 256zM375.713 70.0918c8.49219 8.27441 8.67773 21.8848 0.40332 30.376l-67.0391 68.8262c9.9873 15.3115 15.8516 33.5449 15.8516 53.1387
c0 53.8057 -43.7598 97.5664 -97.5576 97.5664s-97.5752 -43.7607 -97.5752 -97.5664c0 -53.792 43.7783 -97.5615 97.5752 -97.5615c18.6621 0 36.0615 5.35254 50.8848 14.4824l67.0811 -68.8584c4.21191 -4.31348 9.80078 -6.49512 15.3896 -6.49512
c5.4043 0 10.8076 2.03027 14.9863 6.0918z" />
    <glyph glyph-name="mail" unicode="&#xf05a;" 
d="M276.09 149.995l104.358 92.2441v-118.964c0 -16.1758 -13.1035 -29.2871 -29.2783 -29.2871h-190.338c-16.166 0 -29.2871 13.1113 -29.2871 29.2871v118.964l100.982 -91.9229c11.957 -10.8848 31.459 -11.0312 43.5625 -0.321289zM153.908 262.1
c-11.9844 10.8389 -8.5918 19.7051 7.57422 19.7783l189.109 0.936523c16.165 0.0722656 19.4854 -8.57324 7.38086 -19.3027l-81.8828 -72.7393c-12.085 -10.7461 -31.5977 -10.6562 -43.582 0.191406z" />
    <glyph glyph-name="mail_button" unicode="&#xf059;" 
d="M256 448c141.382 0 256 -114.617 256 -256c0 -141.382 -114.618 -256 -256 -256c-141.383 0 -256 114.618 -256 256c0 141.383 114.617 256 256 256zM161.481 281.878c-16.165 -0.0732422 -19.5586 -8.93848 -7.5752 -19.7793l78.5996 -71.1357
c11.9854 -10.8467 31.498 -10.9375 43.583 -0.191406l81.8828 72.7402c12.1035 10.7295 8.78418 19.375 -7.38086 19.3027zM380.447 123.275v118.966l-104.357 -92.2451c-12.1035 -10.71 -31.6064 -10.5645 -43.5635 0.321289l-100.982 91.9229v-118.965
c0 -16.1758 13.1211 -29.2871 29.2871 -29.2871h190.338c16.1738 0 29.2783 13.1113 29.2783 29.2871z" />
    <glyph glyph-name="mailinglist" unicode="&#xf05c;" 
d="M140.649 282.869c-9.60938 8.69238 -6.89551 15.7979 6.06934 15.8633l151.598 0.742188c12.9658 0.0644531 15.625 -6.86719 5.92383 -15.4688l-65.6445 -58.3164c-9.69141 -8.61035 -25.335 -8.53711 -34.9434 0.155273zM363.832 132.711
c0 -12.9658 -10.5078 -23.4736 -23.4727 -23.4736h-167.25c-6.4834 0 -11.7373 5.24512 -11.7373 11.7354v11.7373h155.513c12.9648 0 23.4746 10.5078 23.4746 23.4736v112.968h11.7363c6.49121 0 11.7363 -5.25391 11.7363 -11.7373v-124.703zM392.074 229.173
c6.48242 0 11.7363 -5.25391 11.7373 -11.7373v-124.702c0 -12.9668 -10.5078 -23.4746 -23.4736 -23.4746h-167.25c-6.49219 0 -11.7373 5.24512 -11.7373 11.7363v11.7373h155.513c12.9648 0 23.4736 10.5078 23.4736 23.4736v112.967h11.7373zM323.486 171.589
c0 -12.9658 -10.5078 -23.4736 -23.4736 -23.4736h-152.578c-12.9658 0 -23.4736 10.5078 -23.4736 23.4736v95.3613l80.9385 -73.6943c9.58203 -8.71875 25.2334 -8.83887 34.9443 -0.255859l83.6426 73.9502v-95.3613z" />
    <glyph glyph-name="mailinglist_button" unicode="&#xf05b;" 
d="M256 448c141.382 0 256 -114.617 256 -256c0 -141.382 -114.618 -256 -256 -256c-141.383 0 -256 114.618 -256 256c0 141.383 114.617 256 256 256zM146.719 298.732c-12.9658 -0.0644531 -15.6797 -7.1709 -6.06836 -15.8633l63.0029 -57.0244
c9.6084 -8.69238 25.252 -8.76562 34.9434 -0.155273l65.6445 58.3164c9.70117 8.60156 7.04199 15.5332 -5.92383 15.4688zM123.96 171.589c0 -12.9658 10.5078 -23.4736 23.4736 -23.4727h152.578c12.9658 0 23.4746 10.5078 23.4746 23.4736v95.3623l-83.6436 -73.9512
c-9.71094 -8.58301 -25.3623 -8.46387 -34.9443 0.255859l-80.9385 73.6943v-95.3623zM161.372 120.974c0 -6.49121 5.25293 -11.7363 11.7363 -11.7363h167.25c12.9658 0 23.4736 10.5078 23.4736 23.4736v124.704c0 6.4834 -5.24512 11.7373 -11.7363 11.7373h-11.7363
v-112.968c0 -12.9658 -10.5098 -23.4736 -23.4746 -23.4736h-155.513v-11.7373zM403.811 92.7324h-0.000976562v124.703c0 6.4834 -5.25391 11.7373 -11.7354 11.7373h-11.7373v-112.968c0 -12.9658 -10.5088 -23.4736 -23.4736 -23.4736h-155.514v-11.7373
c0 -6.49121 5.24512 -11.7363 11.7373 -11.7363h167.25c12.9658 0 23.4736 10.5078 23.4736 23.4746z" />
    <glyph glyph-name="map-pointer" unicode="&#xf05e;" 
d="M294.512 127.311l-30.4336 -80.5898c-4.56641 -12.1221 -11.9844 -12.1221 -16.5508 0.00976562l-30.3135 80.6816c-37.916 15.3574 -64.6807 52.4756 -64.6807 95.8926c0 57.1445 46.3242 103.458 103.467 103.458c57.1523 0 103.467 -46.3145 103.467 -103.458
c0 -43.5273 -26.9023 -80.709 -64.9551 -95.9941z" />
    <glyph glyph-name="map-pointer_button" unicode="&#xf05d;" 
d="M256 448c141.382 0 256 -114.617 256 -256c0 -141.382 -114.618 -256 -256 -256c-141.383 0 -256 114.618 -256 256c0 141.383 114.617 256 256 256zM294.512 127.311c38.0527 15.2852 64.9551 52.4668 64.9551 95.9951c0 57.1436 -46.3145 103.458 -103.467 103.458
c-57.1436 0 -103.467 -46.3135 -103.467 -103.458c0 -43.418 26.7646 -80.5361 64.6807 -95.8936l30.3135 -80.6816c4.56641 -12.1318 11.9844 -12.1318 16.5508 -0.00976562z" />
    <glyph glyph-name="menu" unicode="&#xf060;" 
d="M353.141 120c6.48242 0 11.7363 -5.24512 11.7363 -11.7363v-39.8125c0 -6.4834 -5.25391 -11.7373 -11.7363 -11.7373h-65.4971h-63.2861h-65.4971c-6.47363 0 -11.7363 5.25391 -11.7363 11.7373v39.8125c0 6.49121 5.26172 11.7363 11.7363 11.7363h65.4971h63.2861
h65.4971zM353.141 223.644c6.48242 0 11.7363 -5.24512 11.7363 -11.7363v-39.8135c0 -6.48242 -5.25391 -11.7363 -11.7363 -11.7363h-65.4971h-63.2861h-65.4971c-6.47363 0 -11.7363 5.25391 -11.7363 11.7363v39.8135c0 6.49219 5.26172 11.7363 11.7363 11.7363
h65.4971h63.2861h65.4971zM353.141 327.287c6.48242 0 11.7363 -5.24512 11.7363 -11.7373v-39.8125c0 -6.4834 -5.25391 -11.7373 -11.7363 -11.7373h-65.4971h-63.2861h-65.4971c-6.47363 0 -11.7363 5.25391 -11.7363 11.7373v39.8125
c0 6.49219 5.26172 11.7373 11.7363 11.7373h65.4971h63.2861h65.4971z" />
    <glyph glyph-name="menu_button" unicode="&#xf05f;" 
d="M256 448c141.382 0 256 -114.617 256 -256c0 -141.382 -114.618 -256 -256 -256c-141.383 0 -256 114.618 -256 256c0 141.383 114.617 256 256 256zM364.877 68.4502v39.8125c0 6.49121 -5.25391 11.7363 -11.7363 11.7363h-65.4971h-63.2861h-65.4971
c-6.47363 0 -11.7363 -5.24512 -11.7363 -11.7363v-39.8125c0 -6.4834 5.26172 -11.7373 11.7363 -11.7373h65.4971h63.2861h65.4971c6.48242 0 11.7363 5.25391 11.7363 11.7373zM364.877 172.094v39.8135c0 6.49219 -5.25391 11.7363 -11.7363 11.7363h-65.4971h-63.2861
h-65.4971c-6.47363 0 -11.7363 -5.24414 -11.7363 -11.7363v-39.8135c0 -6.48242 5.26172 -11.7363 11.7363 -11.7363h65.4971h63.2861h65.4971c6.48242 0 11.7363 5.25391 11.7363 11.7363zM364.877 275.737v39.8125c0 6.49219 -5.25391 11.7373 -11.7363 11.7373h-65.4971
h-63.2861h-65.4971c-6.47363 0 -11.7363 -5.24512 -11.7363 -11.7373v-39.8125c0 -6.4834 5.26172 -11.7373 11.7363 -11.7373h65.4971h63.2861h65.4971c6.48242 0 11.7363 5.25391 11.7363 11.7373z" />
    <glyph glyph-name="message" unicode="&#xf062;" 
d="M362.121 162.667c0 -19.4385 -15.7617 -35.21 -35.209 -35.21h-19.6602l-79.1309 -63.5898l0.0185547 63.5898h-43.0498c-19.4482 0 -35.21 15.7705 -35.21 35.21v69.4404c0 19.4385 15.7617 35.21 35.21 35.21h141.823c19.4473 0 35.209 -15.7715 35.209 -35.21
v-69.4404h-0.000976562z" />
    <glyph glyph-name="message_button" unicode="&#xf061;" 
d="M256 448c141.382 0 256 -114.617 256 -256c0 -141.382 -114.618 -256 -256 -256c-141.383 0 -256 114.618 -256 256c0 141.383 114.617 256 256 256zM362.121 162.667h0.000976562v69.4395c0 19.4385 -15.7617 35.21 -35.209 35.21h-141.823
c-19.4482 0 -35.21 -15.7715 -35.21 -35.21v-69.4395c0 -19.4395 15.7617 -35.21 35.21 -35.21h43.0498l-0.0185547 -63.5898l79.1309 63.5898h19.6602c19.4473 0 35.209 15.7715 35.209 35.21z" />
    <glyph glyph-name="minus" unicode="&#xf064;" 
d="M224.356 160.356h-65.4971c-6.47461 0 -11.7363 5.25391 -11.7363 11.7363v39.8135c0 6.49219 5.2627 11.7363 11.7363 11.7363h65.4971h63.2861h65.4971c6.48242 0 11.7363 -5.24414 11.7363 -11.7363v-39.8135c0 -6.48242 -5.25391 -11.7363 -11.7363 -11.7363
h-65.4971h-63.2861z" />
    <glyph glyph-name="minus_button" unicode="&#xf063;" 
d="M256 448c141.382 0 256 -114.617 256 -256c0 -141.382 -114.618 -256 -256 -256c-141.383 0 -256 114.618 -256 256c0 141.383 114.617 256 256 256zM364.877 172.094v39.8125c0 6.49219 -5.25391 11.7363 -11.7363 11.7363h-65.4971h-63.2861h-65.4971
c-6.47363 0 -11.7363 -5.24414 -11.7363 -11.7363v-39.8125c0 -6.48242 5.26172 -11.7363 11.7363 -11.7363h65.4971h63.2861h65.4971c6.48242 0 11.7363 5.25391 11.7363 11.7363z" />
    <glyph glyph-name="more" unicode="&#xf066;" 
d="M328 220.233c0 1.88379 5.24609 3.41016 11.7363 3.40918h39.8115c6.48438 0 11.7383 -1.52539 11.7383 -3.40918v-19.0361v-18.3945v-19.0361c0 -1.88086 -5.25391 -3.40918 -11.7383 -3.40918h-39.8115c-6.49023 0 -11.7363 1.52832 -11.7363 3.40918v19.0361v18.3945
v19.0361zM224.356 220.233c0 1.88379 5.24609 3.41016 11.7363 3.40918h39.8135c6.48145 0 11.7354 -1.52539 11.7354 -3.40918v-19.0361v-18.3945v-19.0361c0 -1.88086 -5.25391 -3.40918 -11.7354 -3.40918h-39.8135c-6.49219 0 -11.7363 1.52832 -11.7363 3.40918
v19.0361v18.3945v19.0361zM120.713 220.233c0 1.88379 5.24512 3.41016 11.7373 3.40918h39.8125c6.4834 0 11.7373 -1.52539 11.7373 -3.40918v-19.0361v-18.3945v-19.0361c0 -1.88086 -5.25391 -3.40918 -11.7373 -3.40918h-39.8125
c-6.49219 0 -11.7373 1.52832 -11.7373 3.40918v19.0361v18.3945v19.0361z" />
    <glyph glyph-name="more_button" unicode="&#xf065;" 
d="M0 192c0 141.382 114.617 256 256 256c141.382 0 256 -114.618 256 -256c0 -141.383 -114.618 -256 -256 -256c-141.383 0 -256 114.617 -256 256zM379.55 223.644h-39.8125c-6.49023 0 -11.7354 -1.52637 -11.7354 -3.41016v-19.0352v-18.3945v-19.0361
c0 -1.88086 5.24512 -3.40918 11.7354 -3.40918h39.8125c6.4834 0 11.7373 1.52832 11.7373 3.40918v19.0361v18.3945v19.0352c0 1.88379 -5.25391 3.41016 -11.7373 3.41016zM275.906 223.644h-39.8135c-6.49219 0 -11.7363 -1.52637 -11.7363 -3.41016v-19.0352v-18.3945
v-19.0361c0 -1.88086 5.24414 -3.40918 11.7363 -3.40918h39.8135c6.48145 0 11.7354 1.52832 11.7354 3.40918v19.0361v18.3945v19.0352c0 1.88379 -5.25391 3.41016 -11.7354 3.41016zM132.45 160.357c-6.49219 0 -11.7373 1.52832 -11.7373 3.40918v19.0361v18.3945
v19.0352c0 1.88379 5.24512 3.41016 11.7373 3.41016h39.8125c6.4834 0 11.7373 -1.52637 11.7373 -3.41016v-19.0352v-18.3945v-19.0361c0 -1.88086 -5.25391 -3.40918 -11.7373 -3.40918z" />
    <glyph glyph-name="ok" unicode="&#xf068;" 
d="M227.914 217.097c12.3975 -10.4805 18.5771 -25.0596 18.5781 -43.75c0 -11.9463 -2.2832 -23.373 -6.83984 -34.2822c-4.53906 -10.8936 -10.9854 -20.3828 -19.3291 -28.4434c-9.01465 -8.62012 -19.5596 -15.3018 -31.6445 -19.9893
c-12.1035 -4.7041 -25.6924 -7.04297 -40.7676 -7.04297c-20.2012 0 -36.5029 5.38379 -48.9375 16.1572c-12.4248 10.7461 -18.6328 25.417 -18.6328 44.0127c0 12.6172 2.34766 24.3262 7.04199 35.1387c4.69531 10.8184 11.2598 20.2539 19.6963 28.3135
c8.34375 7.86816 18.5869 14.1035 30.7266 18.7061c12.1416 4.59473 25.2803 6.89648 39.4014 6.89648c21.4482 0 38.3467 -5.24414 50.707 -15.7168zM193.85 157.918c1.72461 11.0391 2.57715 21.5469 2.57812 31.5078c0 11.0938 -1.87988 19.2549 -5.62988 24.4629
c-3.75098 5.21875 -9.17871 7.83105 -16.2852 7.83105c-7.30762 0 -13.9912 -2.9248 -20.0537 -8.74707c-6.07031 -5.83203 -11.0029 -14.3965 -14.7988 -25.6748c-3.31934 -9.39844 -5.69434 -19.5586 -7.10645 -30.5156
c-1.43066 -10.957 -2.13672 -20.7412 -2.13672 -29.3691c0 -11.4727 1.89844 -19.7969 5.68457 -24.9795c3.78711 -5.15137 9.29883 -7.74805 16.5059 -7.74805c7.77539 0 14.5059 3.16406 20.1992 9.52734c5.68555 6.36523 10.1875 14.1758 13.5068 23.4727
c3.31836 9.10547 5.83105 19.1826 7.53613 30.2324zM417.895 104.359c2.4668 0 5.56641 0.486328 9.24609 1.42188c3.70508 0.945312 6.73242 1.90527 9.09766 2.84277l-3.12695 -12.8828c-9.37109 -3.99805 -17.5684 -6.90723 -24.582 -8.72266
c-7.01758 -1.80664 -13.2617 -2.72266 -18.7627 -2.72266c-2.65723 0 -5.98633 0.192383 -10.0205 0.568359c-4.01367 0.394531 -7.50781 1.23828 -10.4434 2.55762c-3.68457 1.71582 -7.0791 4.09082 -10.1494 7.125c-3.10059 3.03516 -6.08789 7.87598 -9.01465 14.5244
c-4.15234 9.42578 -7.11426 16.6045 -8.86523 21.6211c-1.7334 4.97852 -4.16309 11.7559 -7.28027 20.3105l-9.5459 -8.93848l-12.3232 -53.916h-47.0029l41.8574 181.085c0.376953 1.61328 0.65918 3.12695 0.844727 4.54785
c0.202148 1.42188 0.293945 2.61328 0.293945 3.55762c0 3.41113 -0.578125 6.11621 -1.71484 8.10645c-1.12793 1.98926 -2.83398 3.60254 -5.13672 4.83203c-2.27246 1.23828 -4.88574 2.09082 -7.82129 2.55859c-2.94238 0.486328 -6.3623 0.907227 -10.25 1.2832
l2.55859 10.5254l74.8857 3.70508l1.57715 -2.27344l-34.1904 -147.947h1.11719c11.4355 12.8105 20.4307 22.6035 27.04 29.3779c6.60254 6.77637 13.7539 13.9189 21.4561 21.4014c9.2959 9.0127 16.7148 15.2031 22.2734 18.5674
c5.53711 3.36523 11.6816 5.05273 18.4209 5.05273c6.81055 0 12.2305 -1.89844 16.2021 -5.69434c3.98828 -3.78711 5.9873 -9.33398 5.9873 -16.6416c0 -6.73145 -2.43848 -12.709 -7.31738 -17.9277c-4.86816 -5.20801 -10.9023 -7.82031 -18.0723 -7.82031
c-5.95801 0 -11.4785 1.35742 -16.6035 4.05273c-5.10938 2.70508 -9.59375 5.5293 -13.4727 8.46387c-1.9043 -1.24707 -3.75879 -2.47559 -5.58398 -3.67676c-1.80664 -1.20215 -5.55664 -4.30078 -11.2871 -9.30762c4.35742 -10.9766 9.12305 -23.0352 14.3428 -36.1826
c5.19043 -13.1494 9.12402 -22.2246 11.7646 -27.2334c3.12695 -5.97754 6.08789 -10.168 8.88477 -12.5615c2.78711 -2.43066 7.70215 -3.63965 14.7168 -3.63965z" />
    <glyph glyph-name="ok_button" unicode="&#xf067;" 
d="M174.512 221.717c7.10645 0 12.5342 -2.61328 16.2842 -7.83105c3.75 -5.20801 5.62988 -13.3691 5.62988 -24.4629c0 -9.95898 -0.852539 -20.4668 -2.57715 -31.5059c-1.70508 -11.0488 -4.21777 -21.127 -7.53711 -30.2324
c-3.31836 -9.29688 -7.82031 -17.1094 -13.5059 -23.4727c-5.69336 -6.36426 -12.4238 -9.52734 -20.1992 -9.52734c-7.20703 0 -12.7188 2.5957 -16.5059 7.74805c-3.78613 5.18164 -5.68457 13.5068 -5.68457 24.9785c0 8.62793 0.706055 18.4121 2.13672 29.3691
c1.41211 10.958 3.78711 21.1182 7.10645 30.5156c3.7959 11.2783 8.72852 19.8418 14.7988 25.6738c6.06152 5.82227 12.7461 8.74707 20.0537 8.74707zM256 448c141.382 0 256 -114.617 256 -256c0 -141.382 -114.618 -256 -256 -256c-141.383 0 -256 114.618 -256 256
c0 141.383 114.617 256 256 256zM239.651 139.065c4.55664 10.9111 6.83984 22.3369 6.83887 34.2852c0 18.6875 -6.18066 33.2676 -18.5771 43.7471c-12.3613 10.4717 -29.2598 15.7168 -50.707 15.7168c-14.1211 0 -27.2598 -2.30273 -39.4014 -6.89648
c-12.1406 -4.60254 -22.3828 -10.8389 -30.7266 -18.7061c-8.43652 -8.05957 -15.001 -17.4951 -19.6963 -28.3145c-4.69336 -10.8115 -7.04199 -22.5205 -7.04199 -35.1377c0 -18.5957 6.20801 -33.2666 18.6328 -44.0127
c12.4346 -10.7744 28.7373 -16.1572 48.9375 -16.1572c15.0752 0 28.6641 2.33887 40.7676 7.04297c12.085 4.68555 22.6299 11.3691 31.6445 19.9893c8.34375 8.05859 14.79 17.5488 19.3291 28.4434zM382.528 147.795c-5.21777 13.1484 -9.98535 25.2061 -14.3379 36.1807
c5.72949 5.00781 9.47949 8.10645 11.2861 9.30762c1.8252 1.20117 3.67871 2.42969 5.58398 3.67676c3.87988 -2.93359 8.36426 -5.75781 13.4717 -8.46289c5.125 -2.69629 10.6445 -4.05273 16.6045 -4.05273c7.16992 0 13.2041 2.6123 18.0723 7.82031
c4.87891 5.21875 7.31738 11.1973 7.31738 17.9277c0 7.30762 -1.99902 12.8545 -5.9873 16.6416c-3.9707 3.79688 -9.38965 5.69434 -16.2021 5.69434c-6.73926 0 -12.8838 -1.6875 -18.4209 -5.05273c-5.55566 -3.36426 -12.9746 -9.55371 -22.2734 -18.5674
c-7.70117 -7.4834 -14.8525 -14.625 -21.4561 -21.4014c-6.61035 -6.77539 -15.6055 -16.5684 -27.0391 -29.3779h-1.11914l34.1914 147.947l-1.57715 2.27344l-74.8857 -3.70508l-2.55859 -10.5254c3.8877 -0.375977 7.30762 -0.796875 10.251 -1.2832
c2.93359 -0.467773 5.54785 -1.32129 7.82227 -2.55859c2.30078 -1.22852 4.00684 -2.84277 5.13477 -4.83203c1.13672 -1.99023 1.71484 -4.69531 1.71484 -8.10645c0 -0.945312 -0.0917969 -2.13672 -0.293945 -3.55762
c-0.18457 -1.4209 -0.467773 -2.93457 -0.84375 -4.54785l-41.8584 -181.085h47.0029l12.3232 53.916l9.5459 8.93945c3.11719 -8.55469 5.54688 -15.332 7.28027 -20.3105c1.75098 -5.0166 4.71289 -12.1953 8.86621 -21.6211
c2.92578 -6.64844 5.91406 -11.4893 9.01367 -14.5244c3.07129 -3.03516 6.46387 -5.41016 10.1504 -7.125c2.93359 -1.32129 6.42773 -2.16309 10.4434 -2.55762c4.03418 -0.375977 7.36328 -0.568359 10.0225 -0.568359c5.50098 0 11.7441 0.916016 18.7607 2.72266
c7.01367 1.81641 15.2109 4.72363 24.582 8.72168l3.12695 12.8828c-2.36621 -0.935547 -5.3916 -1.89941 -9.0957 -2.84277c-3.68652 -0.936523 -6.78516 -1.4209 -9.25293 -1.4209c-7.01465 0 -11.9297 1.20996 -14.7168 3.63965
c-2.79688 2.39258 -5.75781 6.58301 -8.88477 12.5615c-2.64062 5.00684 -6.5752 14.085 -11.7646 27.2334z" />
    <glyph glyph-name="out" unicode="&#xf06a;" 
d="M331.464 164.804c0 -20.2188 -11.6074 -25.0146 -25.8848 -10.7285c-9.11426 9.10449 -20.0625 20.0537 -31.5977 31.5889c-17.6973 -19.0078 -39.8691 -43.4902 -50.8545 -58.1152c-8.38086 -11.1875 3.08105 -33.3037 12.5254 -47.9561
c5.27148 -8.17969 2.93359 -11.2314 -5.6582 -6.73926c-18.4951 9.71973 -47.625 27.8281 -56.1533 49.3779c-5.77637 14.5605 -10.6357 33.7979 2.20117 48.3672c30.1494 34.248 41.0791 47.1582 52.751 60.2617c-10.6182 10.6172 -20.6592 20.6582 -29.1133 29.1221
c-14.2861 14.3047 -9.47168 25.8945 10.7471 25.8945h103.458c9.71875 0 17.5859 -7.8584 17.5859 -17.5869c0.00195312 -24.9053 0.00195312 -70.999 -0.00683594 -103.486z" />
    <glyph glyph-name="out_button" unicode="&#xf069;" 
d="M256 448c141.382 0 256 -114.617 256 -256c0 -141.382 -114.618 -256 -256 -256c-141.383 0 -256 114.618 -256 256c0 141.383 114.617 256 256 256zM331.464 164.804c0.00878906 32.4873 0.00878906 78.5811 0.00683594 103.486
c0 9.72852 -7.86719 17.5869 -17.5859 17.5869h-103.458c-20.2188 0 -25.0332 -11.5898 -10.7471 -25.8945c8.4541 -8.46387 18.4951 -18.5049 29.1133 -29.1221c-11.6719 -13.1035 -22.6016 -26.0137 -52.751 -60.2617
c-12.8369 -14.5693 -7.97754 -33.8066 -2.20117 -48.3672c8.52832 -21.5498 37.6582 -39.6582 56.1533 -49.3779c8.5918 -4.49219 10.9297 -1.44043 5.6582 6.73926c-9.44434 14.6523 -20.9062 36.7686 -12.5254 47.9561c10.9854 14.625 33.1572 39.1074 50.8545 58.1152
c11.5352 -11.5352 22.4834 -22.4844 31.5977 -31.5889c14.2773 -14.2861 25.8848 -9.49023 25.8848 10.7285z" />
    <glyph glyph-name="pencil" unicode="&#xf06c;" 
d="M171.963 154.58l42.8945 -42.8945c3.71387 -3.7041 2.45801 -6.70215 -2.77832 -6.70215h-37.3291c-5.23535 0 -9.49023 4.23535 -9.49023 9.48926v37.3291c0 5.23535 2.99805 6.49121 6.70312 2.77832zM360.531 265.575c4.58398 -4.58496 4.58398 -12.0117 0 -16.5977
l-114.938 -114.938c-4.58496 -4.58496 -12.0117 -4.58496 -16.5967 0l-34.1924 34.2021c-4.58496 4.58496 -4.58496 12.0117 0 16.5967l114.929 114.938c4.58496 4.58398 12.0117 4.58398 16.5967 0z" />
    <glyph glyph-name="pencil_button" unicode="&#xf06b;" 
d="M256 448c141.382 0 256 -114.617 256 -256c0 -141.382 -114.618 -256 -256 -256c-141.383 0 -256 114.618 -256 256c0 141.383 114.617 256 256 256zM212.079 104.982c5.23535 0 6.49121 2.99805 2.77832 6.70117l-42.8945 42.8955
c-3.70508 3.71289 -6.70312 2.45703 -6.70312 -2.77832v-37.3291c0 -5.25391 4.25488 -9.48926 9.49023 -9.48926h37.3291zM360.531 248.978c4.58398 4.58594 4.58398 12.0127 0.000976562 16.5977l-34.2021 34.2021c-4.58496 4.58398 -12.0117 4.58398 -16.5967 0
l-114.93 -114.938c-4.58496 -4.58496 -4.58496 -12.0117 0 -16.5967l34.1924 -34.2021c4.58496 -4.58496 12.0117 -4.58496 16.5967 0z" />
    <glyph glyph-name="plus" unicode="&#xf06e;" 
d="M364.877 172.094c0 -6.48242 -5.25391 -11.7363 -11.7363 -11.7363h-65.4971v-65.4971c0 -6.47461 -5.25391 -11.7363 -11.7363 -11.7363h-39.8135c-6.49219 0 -11.7363 5.2627 -11.7363 11.7363v65.4971h-65.4971c-6.47461 0 -11.7363 5.25391 -11.7363 11.7363v39.8135
c0 6.49219 5.2627 11.7363 11.7363 11.7363h65.4971v65.4971c0 6.48242 5.24414 11.7363 11.7363 11.7363h39.8135c6.48242 0 11.7363 -5.25391 11.7363 -11.7363v-65.4971h65.4971c6.48242 0 11.7363 -5.24414 11.7363 -11.7363v-39.8135z" />
    <glyph glyph-name="plus_button" unicode="&#xf06d;" 
d="M256 448c141.382 0 256 -114.617 256 -256c0 -141.382 -114.618 -256 -256 -256c-141.383 0 -256 114.618 -256 256c0 141.383 114.617 256 256 256zM364.877 172.094v39.8125c0 6.49219 -5.25391 11.7363 -11.7363 11.7363h-65.4971v65.4971
c0 6.48242 -5.25391 11.7363 -11.7363 11.7363h-39.8135c-6.49219 0 -11.7363 -5.25391 -11.7363 -11.7363v-65.4971h-65.4971c-6.47363 0 -11.7363 -5.24414 -11.7363 -11.7363v-39.8125c0 -6.48242 5.26172 -11.7363 11.7363 -11.7363h65.4971v-65.4971
c0 -6.47363 5.24414 -11.7363 11.7363 -11.7363h39.8135c6.48242 0 11.7363 5.26172 11.7363 11.7363v65.4971h65.4971c6.48242 0 11.7363 5.25391 11.7363 11.7363z" />
    <glyph glyph-name="podcast" unicode="&#xf070;" 
d="M329.713 143.503c-4.67676 -7.3623 -14.4326 -9.50879 -21.7764 -4.8418c-7.34473 4.66699 -9.51758 14.4229 -4.8418 21.7676c5.67676 8.91309 8.66504 19.1094 8.66504 29.4795c0 30.7539 -25.0137 55.7588 -55.7676 55.7588
c-30.7451 0 -55.75 -25.0049 -55.75 -55.7588c0 -10.3896 2.99805 -20.585 8.66504 -29.5068c4.67578 -7.35352 2.51172 -17.1006 -4.85156 -21.7773c-2.62207 -1.66895 -5.54785 -2.45703 -8.44434 -2.45703c-5.21777 0 -10.3154 2.58594 -13.3232 7.30762
c-8.89453 13.9932 -13.5889 30.0488 -13.5889 46.4346c0 48.1396 39.1523 87.3018 87.292 87.3018c48.1475 0 87.3105 -39.1621 87.3105 -87.3018c0 -16.376 -4.69336 -32.4316 -13.5889 -46.4062zM256 340.535c85.6055 0 155.256 -69.6514 155.256 -155.267
c0 -53.3643 -27.0117 -102.376 -72.2725 -131.086c-7.99512 -5.07031 -18.623 -2.71387 -23.7217 5.31836c-5.08008 8.01465 -2.70508 18.6328 5.31836 23.7217c35.2559 22.3643 56.2998 60.5186 56.2998 102.046c0 66.6621 -54.2275 120.881 -120.88 120.881
s-120.871 -54.2188 -120.871 -120.881c0 -41.8291 21.2822 -80.1133 56.9238 -102.432c8.05078 -5.0332 10.4902 -15.6318 5.45605 -23.6934c-3.26465 -5.21582 -8.85742 -8.06738 -14.5889 -8.06738c-3.10938 0 -6.27148 0.851562 -9.0957 2.62207
c-45.7656 28.6348 -73.0801 77.8193 -73.0801 131.57c0 85.6152 69.6504 155.267 155.256 155.267zM267.435 135.847c12.6631 0 20.4932 -9.9668 17.5049 -22.2803l-15.1855 -94.7842c-7.47266 -30.7646 -19.6865 -30.7812 -27.2695 -0.0458984l-15.4043 94.8564
c-3.02637 12.2959 4.78613 22.2539 17.4307 22.2539h22.9238zM256 164.657c-14.3496 0 -25.9863 11.6445 -25.9863 26.0039c0 14.3584 11.6367 25.9951 25.9863 25.9951s25.9863 -11.6367 25.9863 -25.9951c0 -14.3594 -11.6367 -26.0039 -25.9863 -26.0039z" />
    <glyph glyph-name="podcast_button" unicode="&#xf06f;" 
d="M256 448c141.382 0 256 -114.617 256 -256c0 -141.382 -114.618 -256 -256 -256c-141.383 0 -256 114.618 -256 256c0 141.383 114.617 256 256 256zM284.938 113.565c2.98926 12.3145 -4.84082 22.2812 -17.5049 22.2803h-22.9238
c-12.6445 0 -20.457 -9.95801 -17.4307 -22.2539l15.4043 -94.8564c7.58301 -30.7354 19.7969 -30.7188 27.2695 0.0458984zM230.013 190.661c0 -14.3594 11.6367 -26.0039 25.9863 -26.0039s25.9873 11.6445 25.9873 26.0039c0 14.3604 -11.6377 25.9961 -25.9873 25.9961
s-25.9863 -11.6357 -25.9863 -25.9961zM303.094 160.43c-4.67578 -7.34473 -2.50293 -17.1006 4.84082 -21.7666c7.34473 -4.66797 17.1006 -2.52148 21.7773 4.84082c8.89551 13.9736 13.5889 30.0303 13.5889 46.4062c0 48.1396 -39.1641 87.3018 -87.3115 87.3018
c-48.1396 0 -87.292 -39.1621 -87.292 -87.3018c0 -16.3857 4.69434 -32.4424 13.5889 -46.4346c3.00781 -4.72168 8.10547 -7.30762 13.3232 -7.30762c2.89648 0 5.82129 0.788086 8.44434 2.45703c7.36328 4.67578 9.52734 14.4229 4.85156 21.7773
c-5.66699 8.92188 -8.66504 19.1172 -8.66504 29.5068c0 30.7549 25.0049 55.7598 55.75 55.7598c30.7549 0 55.7686 -25.0049 55.7686 -55.7598c0 -10.3701 -2.98926 -20.5664 -8.66504 -29.4795zM338.982 54.1836c45.2607 28.71 72.2734 77.7207 72.2725 131.086
c0 85.6152 -69.6494 155.267 -155.256 155.267s-155.256 -69.6514 -155.256 -155.267c0 -53.751 27.3145 -102.935 73.0801 -131.57c2.8252 -1.76953 5.9873 -2.62207 9.0957 -2.62207c5.73145 0 11.3242 2.85059 14.5889 8.06738
c5.03418 8.06055 2.59473 18.6602 -5.45605 23.6934c-35.6416 22.3193 -56.9238 60.6025 -56.9238 102.432c0 66.6621 54.2188 120.881 120.871 120.881s120.88 -54.2188 120.88 -120.881c0 -41.5273 -21.0439 -79.6816 -56.2998 -102.046
c-8.02344 -5.08887 -10.3984 -15.707 -5.31836 -23.7217c5.09863 -8.03223 15.7266 -10.3877 23.7217 -5.31836z" />
    <glyph glyph-name="print" unicode="&#xf072;" 
d="M363.521 181.324c11.9102 0 21.584 -9.66406 21.584 -21.585v-51.0381c0 -11.9023 -9.6748 -21.5664 -21.5859 -21.5664h-215.041c-11.9189 0 -21.584 9.66406 -21.584 21.5664v51.0381c0 11.9209 9.66406 21.585 21.584 21.585h23.8965v113.434
c0 11.9199 9.66504 21.585 21.585 21.585h75.583l70.082 -69.1758v-65.8428h23.8965zM310.649 181.324v63.0381h-52.7617v43.4727h-44.5713c-6.19824 0 -11.2324 -5.02539 -11.2324 -11.2422v-95.2686h108.565z" />
    <glyph glyph-name="print_button" unicode="&#xf071;" 
d="M257.889 287.835v-43.4727h52.7617v-63.0381h-108.566v95.2686c0 6.2168 5.03418 11.2422 11.2324 11.2422h44.5723zM256 448c141.382 0 256 -114.617 256 -256c0 -141.382 -114.618 -256 -256 -256c-141.383 0 -256 114.618 -256 256c0 141.383 114.617 256 256 256z
M385.105 108.701h0.000976562v51.0381c0 11.9209 -9.6748 21.585 -21.585 21.585h-23.8965v65.8428l-70.082 69.1758h-75.583c-11.9199 0 -21.585 -9.66504 -21.585 -21.585v-113.434h-23.8965c-11.9189 0 -21.584 -9.66406 -21.584 -21.585v-51.0381
c0 -11.9023 9.66406 -21.5664 21.584 -21.5664h215.041c11.9111 0 21.5859 9.66406 21.5859 21.5664z" />
    <glyph glyph-name="question" unicode="&#xf074;" 
d="M314.547 302.977c16.8252 -14.1758 25.3711 -33.1104 25.3691 -56.2617c0 -24.6748 -8.63672 -45.0127 -25.6562 -60.4355c-15.0635 -13.6533 -33.7695 -22.0068 -55.6104 -24.8398c-5.46582 -0.716797 -6.42871 -1.98047 -6.44629 -1.98926l0.265625 -12.9658
c-0.413086 -9.16992 -6.42773 -16.3408 -13.708 -16.3408c-7.40918 0 -13.2129 7.29004 -13.2129 16.5879l-0.550781 40.5283c0 15.5508 12.3613 27.168 24.6016 31.79c6.36426 2.39355 11.8477 5.79492 16.3037 10.123c8.41797 8.15234 12.4883 19.1006 12.4883 33.4502
c0 11.2686 -2.7959 19.9336 -8.56348 26.5088c-5.58398 6.34473 -12.9561 9.43555 -22.5469 9.43555c-4.21875 0 -7.96875 -0.422852 -11.1963 -1.2832c-1.86133 -0.504883 -3.71289 -1.16504 -5.5293 -1.99902c0.844727 -2.89746 1.7793 -6.2627 2.80664 -10.0596
c1.6582 -6.2627 2.51172 -12.1768 2.51172 -17.5957c0 -9.72852 -3.30078 -17.458 -9.81152 -22.9785c-6.2627 -5.27246 -14.8086 -7.95898 -25.4355 -7.95898c-10.334 0 -18.6768 3.41016 -24.7568 10.1133c-5.93262 6.55664 -8.94922 14.6709 -8.94922 24.1064
c0 15.248 8.50879 28.1768 25.2979 38.4287c15.8906 9.70996 35.2559 14.6338 57.4922 14.6338c26.4346 0 48.2402 -7.05957 64.8369 -20.998zM243.768 115.729c10.417 0 19.623 -3.76758 27.3525 -11.25c7.81152 -7.51953 11.7461 -16.5967 11.7461 -26.9678
c0 -10.4248 -3.93359 -19.4385 -11.7822 -26.8477c-7.75781 -7.34473 -16.9268 -11.0596 -27.3164 -11.0596c-10.5166 0 -19.7324 3.71484 -27.4893 11.0596c-7.85938 7.41016 -11.8018 16.4229 -11.8018 26.8477c0 10.3711 3.94336 19.4482 11.7646 26.9678
c7.7207 7.48242 16.9814 11.25 27.5264 11.25z" />
    <glyph glyph-name="question_button" unicode="&#xf073;" 
d="M256 448c141.382 0 256 -114.617 256 -256c0 -141.382 -114.618 -256 -256 -256c-141.383 0 -256 114.618 -256 256c0 141.383 114.617 256 256 256zM271.084 50.6631c7.84863 7.40918 11.7822 16.4229 11.7822 26.8477c0 10.3711 -3.93457 19.4482 -11.7461 26.9678
c-7.72949 7.48242 -16.9355 11.25 -27.3525 11.25c-10.5449 0 -19.8057 -3.76758 -27.5264 -11.25c-7.82227 -7.51953 -11.7646 -16.5967 -11.7646 -26.9678c0 -10.4248 3.94336 -19.4385 11.8018 -26.8477c7.75781 -7.34473 16.9727 -11.0596 27.4893 -11.0596
c10.3896 0 19.5586 3.71484 27.3164 11.0596zM314.262 186.278c17.0186 15.4229 25.6562 35.7607 25.6582 60.4346c0 23.1523 -8.5459 42.0869 -25.3711 56.2627c-16.5967 13.9385 -38.4014 20.998 -64.8369 20.998c-22.2363 0 -41.6006 -4.92383 -57.4922 -14.6338
c-16.7891 -10.252 -25.2979 -23.1797 -25.2979 -38.4287c0 -9.43555 3.01758 -17.5498 8.94922 -24.1064c6.0791 -6.70312 14.4229 -10.1133 24.7568 -10.1133c10.627 0 19.1729 2.68652 25.4365 7.95898c6.50977 5.52051 9.81055 13.25 9.81055 22.9785
c0 5.41895 -0.851562 11.333 -2.51172 17.5957c-1.02734 3.79688 -1.96191 7.16211 -2.80664 10.0596c1.81641 0.833984 3.66797 1.49414 5.5293 1.99902c3.22754 0.860352 6.97852 1.2832 11.1963 1.2832c9.59082 0 16.9629 -3.09082 22.5469 -9.43555
c5.7666 -6.5752 8.56348 -15.2402 8.56348 -26.5088c0 -14.3496 -4.07031 -25.2988 -12.4883 -33.4502c-4.45605 -4.32812 -9.93945 -7.72949 -16.3037 -10.123c-12.2412 -4.62207 -24.6016 -16.2402 -24.6016 -31.79l0.550781 -40.5283
c0 -9.29785 5.80371 -16.5879 13.2129 -16.5879c7.28027 0 13.2949 7.1709 13.708 16.3408l-0.265625 12.9658c0.0175781 0.00878906 0.980469 1.27246 6.44629 1.98926c21.8398 2.83301 40.5469 11.1865 55.6104 24.8398z" />
    <glyph glyph-name="refresh" unicode="&#xf076;" 
d="M348.785 192c3.85156 -9.71973 7.09668 -22.5479 -1.46582 -32.2764c-30.5635 -34.7334 -31.5625 -36.6123 -49.6357 -56.0068c6.26465 -6.25293 12.1504 -12.1484 17.2021 -17.2012c9.55566 -9.53516 6.31836 -17.2744 -7.16113 -17.2744h-69.0459
c-6.48145 0 -11.7354 5.25391 -11.7354 11.7354c0 16.6152 0 47.3789 0.00878906 69.0645c0 13.4883 7.75684 16.6875 17.2744 7.15234c6.60156 -6.61133 14.6436 -14.6445 23.0703 -23.0898c8.58203 8.97754 37.3564 39.373 48.5879 54.3477
c5.59277 7.46387 -2.04395 22.2373 -8.35254 32.0107c-3.52246 5.43848 -1.96289 7.49219 3.77637 4.47461c12.3428 -6.46484 31.7734 -18.5684 37.4766 -32.9365zM184.488 187.36c-5.59375 -7.46387 2.05371 -22.2354 8.36133 -32.0117
c3.5127 -5.44531 1.95312 -7.49023 -3.78613 -4.48242c-12.3428 6.47266 -31.7812 18.5664 -37.4668 32.9443c-3.85059 9.71973 -7.09668 22.5479 1.46777 32.2764c30.0566 34.1572 31.5059 36.5225 48.7432 55.0527c-6.65625 6.66699 -12.9365 12.957 -18.2822 18.3037
c-9.53613 9.53516 -6.32715 17.2744 7.16992 17.2744h69.0459c6.48145 0 11.7363 -5.25488 11.7363 -11.7363c0 -16.6162 0 -47.3799 -0.0195312 -69.0557c0 -13.4873 -7.74805 -16.6973 -17.2744 -7.16992c-6.31738 6.31836 -13.9648 13.9639 -22.0068 22.0059
c-9.5625 -10.0488 -36.833 -38.9414 -47.6885 -53.4014z" />
    <glyph glyph-name="refresh_button" unicode="&#xf075;" 
d="M256 448c141.382 0 256 -114.617 256 -256c0 -141.382 -114.618 -256 -256 -256c-141.383 0 -256 114.618 -256 256c0 141.383 114.617 256 256 256zM189.063 150.866c5.74023 -3.00781 7.29883 -0.962891 3.78613 4.48242
c-6.30762 9.77637 -13.9561 24.5479 -8.36133 32.0117c10.8555 14.46 38.126 43.3516 47.6885 53.4014c8.04199 -8.04102 15.6895 -15.6875 22.0068 -22.0059c9.52637 -9.52734 17.2744 -6.31738 17.2744 7.16992c0.0195312 21.6768 0.0195312 52.4404 0.0195312 69.0557
c0 6.48242 -5.25488 11.7363 -11.7363 11.7363h-69.0459c-13.4971 0 -16.7061 -7.73926 -7.16992 -17.2744c5.34473 -5.34668 11.626 -11.6367 18.2822 -18.3037c-17.2373 -18.5312 -18.6855 -20.8965 -48.7432 -55.0527
c-8.56543 -9.72852 -5.31934 -22.5566 -1.46777 -32.2764c5.68555 -14.3779 25.124 -26.4707 37.4668 -32.9443zM347.318 159.724c8.56348 9.72852 5.31836 22.5566 1.46582 32.2754c-5.7041 14.3691 -25.1338 26.4717 -37.4766 32.9365
c-5.73926 3.0166 -7.29785 0.963867 -3.77637 -4.47461c6.30859 -9.77441 13.9463 -24.5469 8.35254 -32.0098c-11.2324 -14.9746 -40.0059 -45.3701 -48.5879 -54.3477c-8.42578 8.44531 -16.4678 16.4785 -23.0703 23.0898
c-9.5166 9.53516 -17.2744 6.33594 -17.2744 -7.15234c-0.00878906 -21.6846 -0.00878906 -52.4492 -0.00878906 -69.0645c0 -6.48145 5.25391 -11.7354 11.7354 -11.7354h69.0459c13.4785 0 16.7168 7.73926 7.16113 17.2744
c-5.05176 5.05273 -10.9375 10.9482 -17.2021 17.2012c18.0732 19.3945 19.0732 21.2744 49.6357 56.0068z" />
    <glyph glyph-name="rss" unicode="&#xf078;" 
d="M178.464 233.015c68.8799 0 127.069 -53.9072 127.069 -117.716c0 -10.3516 -8.38086 -18.7422 -18.7334 -18.7422c-10.3516 0 -18.7422 8.38965 -18.7422 18.7422c0 43.4912 -41.0322 80.2412 -89.5938 80.2412c-10.3516 0 -18.7422 8.38965 -18.7422 18.7334
c0 10.3516 8.38965 18.7412 18.7422 18.7412zM178.464 310.322c119.642 0 203.212 -80.2051 203.211 -195.024c0 -10.3516 -8.38965 -18.7422 -18.7324 -18.7422c-10.3525 0 -18.7422 8.38965 -18.7422 18.7422c0 94.2344 -66.6064 157.54 -165.736 157.54
c-10.3516 0 -18.7422 8.38965 -18.7422 18.7422c0 10.3516 8.38965 18.7422 18.7422 18.7422zM189.21 160.072c19.7783 0 35.8066 -16.0645 35.8066 -35.7881c0 -19.7598 -16.0283 -35.8076 -35.8066 -35.8076c-19.7324 0 -35.7783 16.0479 -35.7783 35.8076
c0 19.7236 16.0459 35.7881 35.7783 35.7881z" />
    <glyph glyph-name="rss_button" unicode="&#xf077;" 
d="M256 448c141.382 0 256 -114.617 256 -256c0 -141.382 -114.618 -256 -256 -256c-141.383 0 -256 114.618 -256 256c0 141.383 114.617 256 256 256zM189.209 88.4775c19.7793 0 35.8066 16.0469 35.8066 35.8076c0 19.7236 -16.0283 35.7881 -35.8066 35.7881
c-19.7324 0 -35.7783 -16.0645 -35.7783 -35.7881c0 -19.7598 16.0459 -35.8076 35.7783 -35.8076zM286.8 96.5557c10.3525 0 18.7334 8.38965 18.7344 18.7422c0 63.8096 -58.1904 117.717 -127.07 117.717c-10.3516 0 -18.7422 -8.38867 -18.7422 -18.7412
c0 -10.3428 8.38965 -18.7334 18.7422 -18.7334c48.5605 0 89.5938 -36.751 89.5938 -80.2422c0 -10.3516 8.38965 -18.7422 18.7422 -18.7422zM362.942 96.5557c10.3428 0 18.7334 8.38965 18.7324 18.7422c0 114.819 -83.5693 195.024 -203.212 195.024
c-10.3516 0 -18.7422 -8.39062 -18.7422 -18.7422c0 -10.3525 8.38965 -18.7422 18.7422 -18.7422c99.1309 0 165.737 -63.3057 165.737 -157.54c0 -10.3516 8.38867 -18.7422 18.7422 -18.7422z" />
    </font>
</defs>
</svg>
